<svg id="svg" version="1.1" xmlns="http://www.w3.org/2000/svg" xmlns:xlink="http://www.w3.org/1999/xlink" width="400" height="397.17171717171715" viewBox="0, 0, 400,397.17171717171715"><g id="svgg"><path id="path0" d="M117.980 110.712 C 79.283 114.673,50.101 150.105,50.101 193.131 C 50.101 243.548,90.072 282.086,134.949 274.935 C 170.008 269.350,196.818 235.808,197.914 196.162 C 198.106 189.198,196.770 186.105,192.621 183.906 C 190.041 182.538,192.869 182.626,151.435 182.626 L 113.939 182.626 113.939 193.131 L 113.939 203.636 145.152 203.636 C 175.871 203.636,176.364 203.643,176.364 204.027 C 176.364 207.666,173.269 217.714,170.293 223.737 C 155.739 253.194,123.149 263.469,97.879 246.568 C 65.967 225.225,61.836 174.134,89.777 146.359 C 103.198 133.018,120.767 128.439,138.889 133.558 C 151.156 137.023,163.189 145.734,168.490 154.986 C 168.956 155.799,170.075 157.715,170.977 159.242 L 172.618 162.020 183.976 162.020 L 195.334 162.020 194.315 159.848 C 193.755 158.654,192.124 155.164,190.691 152.092 C 186.199 142.468,183.496 138.434,177.575 132.525 C 162.180 117.160,138.755 108.586,117.980 110.712 M269.402 111.031 C 267.021 111.933,265.213 113.318,264.068 115.116 C 263.215 116.456,193.535 275.072,193.535 275.674 C 193.535 275.720,198.800 275.758,205.235 275.758 L 216.935 275.758 218.039 272.475 C 218.933 269.815,271.046 150.692,272.634 147.677 L 272.900 147.172 273.303 148.081 C 293.649 193.974,326.531 269.237,327.517 272.172 L 328.722 275.758 340.445 275.758 C 351.514 275.758,352.163 275.738,352.067 275.404 C 351.770 274.364,284.726 121.417,282.282 116.203 C 280.226 111.818,273.963 109.303,269.402 111.031 " stroke="none" fill="#fcfbfb" fill-rule="evenodd"></path><path id="path1" d="M162.626 0.216 C 150.971 2.243,136.335 5.590,129.489 7.793 C 118.111 11.455,115.312 13.597,106.151 25.657 C 95.598 39.548,93.419 41.059,76.889 45.950 C 57.415 51.712,54.036 54.787,43.808 76.061 C 40.619 82.693,38.716 86.261,36.804 89.192 C 26.156 105.514,13.206 138.194,8.586 160.404 C 7.685 164.735,6.809 168.266,5.226 173.939 C 0.536 190.752,0.101 194.841,0.101 222.121 C 0.101 241.372,1.321 245.061,12.176 258.648 C 21.276 270.037,21.708 270.865,26.967 286.970 C 31.681 301.409,33.306 304.973,38.548 312.373 C 43.550 319.435,48.409 325.056,58.674 335.657 C 64.487 341.660,65.975 343.465,69.343 348.600 C 77.794 361.486,78.584 362.587,81.710 365.839 C 87.765 372.138,92.998 374.422,109.287 377.873 C 118.280 379.779,121.103 380.572,126.364 382.670 C 135.773 386.422,150.650 390.427,163.838 392.757 C 168.183 393.524,174.422 393.082,185.457 391.225 C 201.294 388.559,204.131 388.748,218.327 393.412 C 232.028 397.914,233.900 398.062,246.748 395.653 C 277.854 389.823,281.569 388.195,301.818 371.523 C 305.440 368.541,308.560 366.169,311.410 364.229 C 315.714 361.299,319.772 356.602,326.148 347.172 C 333.229 336.695,336.008 333.789,346.667 325.707 C 357.471 317.513,360.604 314.586,364.345 309.184 C 366.368 306.262,368.303 303.724,371.445 299.871 C 383.446 285.154,384.648 283.244,389.355 271.414 C 392.093 264.533,394.501 257.826,395.957 253.030 C 400.812 237.039,401.014 233.013,397.783 216.676 C 395.816 206.732,395.638 205.388,395.355 198.384 C 395.060 191.081,394.325 186.889,391.398 175.814 C 388.999 166.738,388.402 164.076,386.666 154.688 C 383.758 138.966,382.519 134.087,379.450 126.263 C 377.746 121.919,376.682 118.165,375.156 111.111 C 371.668 94.991,370.434 92.090,362.653 81.717 C 351.386 66.697,333.979 49.241,319.091 38.033 C 308.455 30.025,301.372 26.229,282.626 18.487 C 270.737 13.577,269.229 13.264,254.343 12.623 C 241.616 12.075,240.636 11.928,226.841 8.488 C 213.894 5.260,209.636 4.542,201.616 4.241 C 195.072 3.995,193.164 3.750,183.434 1.912 C 175.118 0.341,173.712 0.170,168.485 0.093 C 165.874 0.054,163.237 0.110,162.626 0.216 M273.434 106.667 C 273.503 106.778,273.372 106.869,273.143 106.869 C 272.914 106.869,272.727 106.778,272.727 106.667 C 272.727 106.556,272.858 106.465,273.018 106.465 C 273.178 106.465,273.366 106.556,273.434 106.667 M133.131 110.797 C 153.232 113.399,172.415 124.224,183.638 139.296 C 186.701 143.410,188.362 146.587,194.861 160.758 L 195.533 162.222 184.072 162.222 L 172.612 162.222 170.621 158.838 C 166.642 152.077,165.625 150.677,162.217 147.275 C 146.265 131.350,121.336 127.107,102.431 137.099 C 70.363 154.047,61.090 202.003,83.901 232.929 C 107.720 265.223,151.787 260.580,170.106 223.846 C 173.091 217.861,176.162 207.967,176.162 204.334 L 176.162 203.840 145.000 203.789 L 113.838 203.737 113.838 193.131 L 113.838 182.525 151.071 182.474 C 191.939 182.418,189.798 182.358,192.380 183.630 C 197.916 186.357,199.143 191.433,197.462 204.646 C 191.042 255.098,146.081 287.163,102.560 272.328 C 57.553 256.987,36.520 199.577,59.001 153.434 C 71.099 128.601,93.482 112.715,119.596 110.427 C 121.727 110.240,130.730 110.486,133.131 110.797 M275.844 110.843 C 278.250 111.441,280.473 113.041,281.794 115.125 C 282.741 116.620,352.323 275.113,352.323 275.777 C 352.323 275.889,347.608 275.942,340.472 275.911 L 328.621 275.859 327.448 272.346 C 326.455 269.374,273.570 148.371,272.939 147.628 C 272.697 147.344,219.277 269.148,218.107 272.652 L 217.035 275.859 205.162 275.911 C 194.601 275.957,193.302 275.929,193.407 275.655 C 194.575 272.612,262.319 118.168,263.585 115.662 C 265.644 111.589,270.756 109.579,275.844 110.843 " stroke="none" fill="#ec2c24" fill-rule="evenodd"></path><path id="path2" d="M121.869 110.448 C 122.174 110.494,122.674 110.494,122.980 110.448 C 123.285 110.401,123.035 110.364,122.424 110.364 C 121.813 110.364,121.563 110.401,121.869 110.448 M126.212 110.446 C 126.462 110.494,126.871 110.494,127.121 110.446 C 127.371 110.397,127.167 110.358,126.667 110.358 C 126.167 110.358,125.962 110.397,126.212 110.446 M126.515 131.654 C 126.710 131.705,127.028 131.705,127.222 131.654 C 127.417 131.604,127.258 131.562,126.869 131.562 C 126.480 131.562,126.321 131.604,126.515 131.654 M132.475 182.576 C 142.725 182.605,159.497 182.605,169.747 182.576 C 179.997 182.547,171.611 182.523,151.111 182.523 C 130.611 182.523,122.225 182.547,132.475 182.576 M49.979 193.131 C 49.979 194.742,50.011 195.402,50.049 194.596 C 50.087 193.790,50.087 192.472,50.049 191.667 C 50.011 190.861,49.979 191.520,49.979 193.131 M71.166 191.111 C 71.166 191.611,71.206 191.816,71.254 191.566 C 71.302 191.316,71.302 190.907,71.254 190.657 C 71.206 190.407,71.166 190.611,71.166 191.111 M198.054 194.040 C 198.054 195.152,198.088 195.580,198.129 194.993 C 198.170 194.406,198.169 193.497,198.128 192.973 C 198.087 192.449,198.053 192.929,198.054 194.040 M71.166 195.152 C 71.166 195.652,71.206 195.856,71.254 195.606 C 71.302 195.356,71.302 194.947,71.254 194.697 C 71.206 194.447,71.166 194.652,71.166 195.152 M129.561 203.788 C 138.209 203.817,152.300 203.817,160.874 203.788 C 169.449 203.759,162.374 203.735,145.152 203.735 C 127.929 203.735,120.914 203.759,129.561 203.788 M122.071 254.685 C 122.265 254.736,122.583 254.736,122.778 254.685 C 122.972 254.634,122.813 254.592,122.424 254.592 C 122.035 254.592,121.876 254.634,122.071 254.685 M125.707 254.685 C 125.902 254.736,126.220 254.736,126.414 254.685 C 126.609 254.634,126.449 254.592,126.061 254.592 C 125.672 254.592,125.513 254.634,125.707 254.685 M193.466 275.808 C 193.517 275.891,198.821 275.960,205.253 275.960 C 211.684 275.960,216.988 275.891,217.039 275.808 C 217.091 275.725,211.787 275.657,205.253 275.657 C 198.718 275.657,193.414 275.725,193.466 275.808 M122.879 275.907 C 123.629 275.946,124.856 275.946,125.606 275.907 C 126.356 275.869,125.742 275.837,124.242 275.837 C 122.742 275.837,122.129 275.869,122.879 275.907 M334.610 275.909 C 337.924 275.940,343.288 275.940,346.530 275.909 C 349.772 275.878,347.061 275.852,340.505 275.852 C 333.949 275.852,331.297 275.878,334.610 275.909 " stroke="none" fill="#f59d7e" fill-rule="evenodd"></path><path id="path3" d="M272.727 106.667 C 272.727 106.778,272.914 106.869,273.143 106.869 C 273.372 106.869,273.503 106.778,273.434 106.667 C 273.366 106.556,273.178 106.465,273.018 106.465 C 272.858 106.465,272.727 106.556,272.727 106.667 M127.727 110.442 C 127.922 110.493,128.240 110.493,128.434 110.442 C 128.629 110.391,128.470 110.350,128.081 110.350 C 127.692 110.350,127.533 110.391,127.727 110.442 M271.768 110.442 C 271.962 110.493,272.280 110.493,272.475 110.442 C 272.669 110.391,272.510 110.350,272.121 110.350 C 271.732 110.350,271.573 110.391,271.768 110.442 M177.576 132.424 C 178.292 133.146,178.923 133.737,178.978 133.737 C 179.034 133.737,178.494 133.146,177.778 132.424 C 177.062 131.702,176.431 131.111,176.375 131.111 C 176.320 131.111,176.860 131.702,177.576 132.424 M123.693 131.664 C 124.224 131.706,125.042 131.705,125.511 131.663 C 125.980 131.620,125.545 131.586,124.545 131.587 C 123.545 131.587,123.162 131.622,123.693 131.664 M89.484 146.616 L 88.788 147.374 89.545 146.678 C 90.251 146.030,90.396 145.859,90.242 145.859 C 90.208 145.859,89.867 146.199,89.484 146.616 M113.831 193.131 C 113.831 198.965,113.857 201.351,113.889 198.434 C 113.920 195.518,113.920 190.745,113.889 187.828 C 113.857 184.912,113.831 187.298,113.831 193.131 M194.949 185.556 C 195.326 185.944,195.680 186.263,195.736 186.263 C 195.791 186.263,195.528 185.944,195.152 185.556 C 194.775 185.167,194.421 184.848,194.365 184.848 C 194.310 184.848,194.573 185.167,194.949 185.556 M49.950 189.596 C 49.952 190.040,49.994 190.198,50.042 189.947 C 50.090 189.696,50.088 189.332,50.038 189.139 C 49.987 188.946,49.948 189.152,49.950 189.596 M71.176 193.131 C 71.176 193.854,71.212 194.149,71.257 193.788 C 71.302 193.427,71.302 192.836,71.257 192.475 C 71.212 192.114,71.176 192.409,71.176 193.131 M49.950 196.667 C 49.952 197.111,49.994 197.269,50.042 197.018 C 50.090 196.767,50.088 196.403,50.038 196.210 C 49.987 196.017,49.948 196.222,49.950 196.667 M198.031 196.667 C 198.033 197.111,198.074 197.269,198.123 197.018 C 198.171 196.767,198.169 196.403,198.119 196.210 C 198.068 196.017,198.029 196.222,198.031 196.667 M123.586 254.692 C 123.947 254.736,124.538 254.736,124.899 254.692 C 125.260 254.647,124.965 254.610,124.242 254.610 C 123.520 254.610,123.225 254.647,123.586 254.692 " stroke="none" fill="#f47955" fill-rule="evenodd"></path><path id="path4" d="M123.990 110.449 C 124.351 110.494,124.942 110.494,125.303 110.449 C 125.664 110.404,125.369 110.368,124.646 110.368 C 123.924 110.368,123.629 110.404,123.990 110.449 M279.798 112.993 C 279.798 113.027,280.093 113.323,280.455 113.649 L 281.111 114.242 280.518 113.586 C 279.965 112.974,279.798 112.836,279.798 112.993 M74.643 131.566 L 72.424 133.838 74.697 131.620 C 75.947 130.399,76.970 129.377,76.970 129.347 C 76.970 129.201,76.704 129.455,74.643 131.566 M175.152 130.164 C 175.152 130.199,175.447 130.494,175.808 130.821 L 176.465 131.414 175.871 130.758 C 175.318 130.146,175.152 130.008,175.152 130.164 M90.997 145.101 L 90.404 145.758 91.061 145.164 C 91.673 144.611,91.810 144.444,91.654 144.444 C 91.619 144.444,91.324 144.740,90.997 145.101 M162.323 147.273 C 162.870 147.828,163.364 148.283,163.419 148.283 C 163.475 148.283,163.072 147.828,162.525 147.273 C 161.978 146.717,161.485 146.263,161.429 146.263 C 161.374 146.263,161.776 146.717,162.323 147.273 M88.070 148.030 L 87.374 148.788 88.131 148.092 C 88.836 147.444,88.982 147.273,88.828 147.273 C 88.794 147.273,88.453 147.614,88.070 148.030 M178.333 162.172 C 181.472 162.203,186.609 162.203,189.747 162.172 C 192.886 162.140,190.318 162.115,184.040 162.115 C 177.763 162.115,175.194 162.140,178.333 162.172 M71.158 189.697 C 71.158 190.086,71.200 190.245,71.250 190.051 C 71.301 189.856,71.301 189.538,71.250 189.343 C 71.200 189.149,71.158 189.308,71.158 189.697 M71.158 196.566 C 71.158 196.955,71.200 197.114,71.250 196.919 C 71.301 196.725,71.301 196.407,71.250 196.212 C 71.200 196.018,71.158 196.177,71.158 196.566 M88.081 238.283 C 88.458 238.672,88.812 238.990,88.867 238.990 C 88.923 238.990,88.660 238.672,88.283 238.283 C 87.906 237.894,87.552 237.576,87.496 237.576 C 87.441 237.576,87.704 237.894,88.081 238.283 M158.783 239.747 L 157.071 241.515 158.838 239.802 C 159.811 238.860,160.606 238.065,160.606 238.035 C 160.606 237.888,160.374 238.106,158.783 239.747 M90.909 241.111 C 91.286 241.500,91.640 241.818,91.695 241.818 C 91.751 241.818,91.488 241.500,91.111 241.111 C 90.734 240.722,90.380 240.404,90.325 240.404 C 90.269 240.404,90.532 240.722,90.909 241.111 M74.542 254.596 C 75.707 255.790,76.684 256.768,76.714 256.768 C 76.859 256.768,76.613 256.509,74.596 254.542 L 72.424 252.424 74.542 254.596 M173.333 254.848 C 172.506 255.682,171.874 256.364,171.929 256.364 C 171.985 256.364,172.708 255.682,173.535 254.848 C 174.363 254.015,174.995 253.333,174.939 253.333 C 174.884 253.333,174.161 254.015,173.333 254.848 " stroke="none" fill="#fcb494" fill-rule="evenodd"></path></g></svg>