<svg id="svg" version="1.1" xmlns="http://www.w3.org/2000/svg" xmlns:xlink="http://www.w3.org/1999/xlink" width="400" height="74.5" viewBox="0, 0, 400,74.5"><g id="svgg"><path id="path0" d="M28.208 0.121 C 27.910 0.158,27.667 0.245,27.667 0.315 C 27.667 0.385,27.442 0.409,27.167 0.369 C 26.892 0.329,26.667 0.368,26.667 0.457 C 26.667 0.546,26.126 0.669,25.465 0.730 C 24.805 0.792,24.224 0.906,24.174 0.983 C 24.124 1.061,23.840 1.178,23.542 1.242 C 23.244 1.307,23.000 1.419,23.000 1.491 C 23.000 1.563,22.668 1.667,22.262 1.723 C 21.538 1.822,19.680 3.379,19.660 3.904 C 19.656 4.003,19.431 4.267,19.160 4.492 C 18.888 4.717,18.667 4.970,18.667 5.054 C 18.667 5.298,16.521 7.333,16.262 7.333 C 16.133 7.333,16.000 7.418,15.965 7.521 C 15.931 7.624,15.512 7.746,15.035 7.792 C 14.557 7.838,14.167 7.933,14.167 8.003 C 14.167 8.072,13.904 8.179,13.583 8.239 C 13.262 8.299,13.000 8.417,13.000 8.502 C 13.000 8.586,12.626 8.705,12.170 8.765 C 11.713 8.826,11.380 8.941,11.430 9.021 C 11.479 9.101,11.382 9.167,11.214 9.167 C 11.045 9.167,10.779 9.317,10.622 9.500 C 10.465 9.683,10.223 9.833,10.085 9.833 C 9.947 9.833,9.833 9.947,9.833 10.085 C 9.833 10.223,9.683 10.465,9.500 10.622 C 9.317 10.779,9.167 11.045,9.167 11.214 C 9.167 11.382,9.100 11.478,9.018 11.428 C 8.937 11.378,8.822 11.591,8.764 11.902 C 8.705 12.213,8.547 12.510,8.412 12.562 C 8.277 12.614,8.167 12.771,8.167 12.911 C 8.167 13.052,8.101 13.167,8.021 13.167 C 7.941 13.167,7.829 13.458,7.772 13.815 C 7.715 14.172,7.556 14.507,7.418 14.560 C 7.280 14.613,7.167 14.771,7.167 14.911 C 7.167 15.052,7.092 15.167,7.000 15.167 C 6.908 15.167,6.833 15.317,6.833 15.502 C 6.833 15.686,6.683 15.965,6.500 16.122 C 6.317 16.279,6.167 16.503,6.167 16.620 C 6.167 16.738,6.092 16.833,6.000 16.833 C 5.908 16.833,5.833 16.986,5.833 17.172 C 5.833 17.358,5.720 17.554,5.582 17.607 C 5.444 17.660,5.285 17.995,5.228 18.352 C 5.171 18.708,5.065 19.000,4.992 19.000 C 4.919 19.000,4.810 19.225,4.750 19.500 C 4.690 19.775,4.579 20.000,4.505 20.000 C 4.431 20.000,4.321 20.262,4.261 20.583 C 4.201 20.904,4.086 21.167,4.006 21.167 C 3.925 21.167,3.810 21.392,3.750 21.667 C 3.690 21.942,3.563 22.167,3.468 22.167 C 3.371 22.167,3.328 22.386,3.369 22.667 C 3.409 22.942,3.380 23.167,3.304 23.167 C 3.229 23.167,3.167 23.273,3.167 23.403 C 3.167 23.533,3.087 23.666,2.989 23.698 C 2.892 23.731,2.769 24.074,2.717 24.462 C 2.665 24.850,2.567 25.167,2.499 25.167 C 2.431 25.167,2.329 25.460,2.272 25.819 C 2.214 26.178,2.094 26.497,2.005 26.528 C 1.916 26.558,1.792 27.127,1.731 27.792 C 1.669 28.456,1.559 29.000,1.486 29.000 C 1.413 29.000,1.301 29.356,1.237 29.792 C 1.173 30.227,1.052 30.628,0.968 30.682 C 0.883 30.737,0.771 31.205,0.717 31.724 C 0.664 32.242,0.565 32.667,0.497 32.667 C -0.154 32.667,-0.176 44.235,0.474 44.654 C 0.555 44.707,0.678 44.930,0.747 45.151 C 0.816 45.372,1.051 45.718,1.269 45.920 C 1.488 46.123,1.667 46.357,1.667 46.440 C 1.667 46.524,1.882 46.781,2.144 47.012 C 2.407 47.242,2.673 47.590,2.734 47.783 C 2.796 47.977,2.956 48.178,3.090 48.229 C 3.224 48.281,3.333 48.438,3.333 48.578 C 3.333 48.718,3.400 48.833,3.482 48.833 C 3.564 48.833,3.682 49.039,3.745 49.290 C 3.808 49.541,3.935 49.793,4.026 49.849 C 4.117 49.906,4.234 50.263,4.285 50.643 C 4.336 51.023,4.434 51.333,4.503 51.333 C 4.573 51.333,4.679 51.596,4.739 51.917 C 4.799 52.237,4.911 52.500,4.988 52.500 C 5.065 52.500,5.180 52.913,5.243 53.417 C 5.306 53.921,5.427 54.333,5.512 54.333 C 5.597 54.333,5.667 54.448,5.667 54.589 C 5.667 54.729,5.779 54.887,5.917 54.940 C 6.054 54.992,6.168 55.196,6.169 55.393 C 6.172 55.718,6.492 56.425,6.497 56.118 C 6.499 56.046,6.603 56.083,6.729 56.201 C 6.855 56.319,6.926 56.499,6.886 56.603 C 6.847 56.706,6.931 56.835,7.074 56.890 C 7.217 56.945,7.333 57.145,7.333 57.335 C 7.333 57.572,7.425 57.666,7.625 57.632 C 7.824 57.599,7.901 57.676,7.868 57.875 C 7.841 58.035,7.878 58.167,7.951 58.167 C 8.216 58.167,8.946 58.922,8.877 59.125 C 8.834 59.249,8.951 59.333,9.167 59.333 C 9.383 59.333,9.499 59.417,9.456 59.542 C 9.416 59.656,9.935 60.291,10.608 60.952 C 11.282 61.614,11.833 62.270,11.833 62.411 C 11.833 62.551,11.911 62.667,12.005 62.667 C 12.100 62.667,12.227 62.798,12.288 62.958 C 12.349 63.119,12.563 63.380,12.764 63.539 C 12.965 63.698,13.179 64.028,13.241 64.273 C 13.302 64.517,13.536 64.861,13.759 65.037 C 13.983 65.213,14.169 65.446,14.171 65.554 C 14.179 65.923,15.483 67.136,15.992 67.248 C 16.271 67.310,16.500 67.423,16.500 67.500 C 16.500 67.577,16.744 67.693,17.042 67.758 C 17.340 67.822,17.628 67.946,17.683 68.032 C 17.738 68.118,18.357 68.232,19.058 68.285 C 19.760 68.338,20.333 68.439,20.333 68.509 C 20.333 68.580,20.633 68.688,21.000 68.750 C 21.367 68.812,21.667 68.923,21.667 68.996 C 21.667 69.069,22.023 69.182,22.458 69.247 C 22.894 69.311,23.355 69.451,23.484 69.557 C 23.613 69.663,23.725 69.733,23.734 69.713 C 23.783 69.600,24.500 69.898,24.500 70.032 C 24.500 70.120,24.758 70.170,25.074 70.143 C 25.390 70.116,25.703 70.147,25.769 70.213 C 25.835 70.279,26.059 70.333,26.268 70.333 C 26.476 70.333,26.692 70.406,26.747 70.495 C 26.802 70.584,27.219 70.706,27.674 70.767 C 28.128 70.827,28.500 70.931,28.500 70.998 C 28.500 71.065,29.587 71.124,30.917 71.130 C 32.289 71.136,33.333 71.074,33.333 70.987 C 33.333 70.903,33.581 70.833,33.883 70.833 C 34.186 70.833,34.505 70.770,34.592 70.693 C 34.824 70.487,38.364 70.780,38.511 71.017 C 38.578 71.126,38.790 71.173,38.983 71.123 C 39.175 71.073,39.375 71.099,39.426 71.182 C 39.478 71.265,39.659 71.333,39.829 71.333 C 40.000 71.333,40.170 71.427,40.209 71.542 C 40.260 71.697,40.954 71.750,42.917 71.750 C 44.880 71.750,45.573 71.697,45.625 71.542 C 45.663 71.427,45.909 71.333,46.171 71.333 C 46.433 71.333,46.688 71.267,46.738 71.187 C 46.787 71.106,47.167 71.079,47.581 71.125 C 48.036 71.177,48.333 71.143,48.333 71.040 C 48.333 70.947,48.607 70.819,48.941 70.756 C 49.275 70.694,49.740 70.517,49.974 70.364 C 50.207 70.211,50.534 70.109,50.699 70.137 C 50.865 70.165,51.000 70.116,51.000 70.029 C 51.000 69.941,51.188 69.822,51.417 69.765 C 51.646 69.707,51.833 69.587,51.833 69.497 C 51.833 69.407,51.925 69.333,52.036 69.333 C 52.148 69.333,52.411 69.134,52.621 68.890 C 52.830 68.646,53.050 68.495,53.109 68.554 C 53.169 68.613,53.436 68.405,53.704 68.091 C 53.973 67.777,54.285 67.556,54.398 67.599 C 54.511 67.643,54.705 67.489,54.829 67.259 C 54.952 67.028,55.207 66.790,55.395 66.730 C 55.583 66.671,55.877 66.444,56.047 66.228 C 56.218 66.011,56.446 65.832,56.554 65.831 C 56.851 65.828,58.167 64.549,58.167 64.263 C 58.167 64.125,58.317 63.931,58.500 63.833 C 58.683 63.735,58.833 63.516,58.833 63.345 C 58.833 63.175,58.946 62.992,59.083 62.940 C 59.221 62.887,59.333 62.737,59.333 62.606 C 59.333 62.476,59.446 62.326,59.583 62.273 C 59.721 62.220,59.833 62.025,59.833 61.839 C 59.833 61.652,59.897 61.500,59.974 61.500 C 60.156 61.500,61.132 60.544,61.650 59.861 C 61.870 59.571,62.172 59.333,62.321 59.333 C 62.470 59.333,62.721 59.183,62.878 59.000 C 63.035 58.817,63.272 58.667,63.404 58.667 C 63.536 58.667,63.691 58.520,63.747 58.342 C 63.810 58.145,63.946 58.054,64.092 58.110 C 64.257 58.173,64.333 58.088,64.333 57.841 C 64.333 57.643,64.405 57.525,64.492 57.579 C 64.718 57.718,65.333 57.149,65.333 56.802 C 65.333 56.611,65.420 56.544,65.583 56.606 C 65.754 56.672,65.833 56.597,65.833 56.369 C 65.833 56.186,65.946 55.992,66.083 55.940 C 66.221 55.887,66.333 55.734,66.333 55.601 C 66.333 55.467,66.532 55.201,66.775 55.010 C 67.019 54.818,67.170 54.614,67.112 54.556 C 66.998 54.442,67.823 53.667,68.059 53.667 C 68.138 53.667,68.162 53.563,68.114 53.436 C 68.065 53.309,68.207 53.047,68.429 52.854 C 68.651 52.660,68.833 52.400,68.833 52.274 C 68.833 52.149,69.018 51.908,69.245 51.738 C 69.471 51.568,69.702 51.220,69.758 50.965 C 69.814 50.709,69.923 50.500,70.000 50.500 C 70.077 50.500,70.190 50.275,70.250 50.000 C 70.310 49.725,70.438 49.500,70.534 49.500 C 70.639 49.500,70.668 49.301,70.608 49.000 C 70.552 48.718,70.579 48.500,70.671 48.500 C 70.760 48.500,70.833 48.387,70.833 48.250 C 70.833 48.112,70.905 48.000,70.992 48.000 C 71.080 48.000,71.201 47.737,71.261 47.417 C 71.321 47.096,71.446 46.833,71.537 46.833 C 71.629 46.833,71.671 46.608,71.631 46.333 C 71.591 46.058,71.620 45.833,71.696 45.833 C 71.771 45.833,71.833 45.690,71.833 45.514 C 71.833 45.338,71.911 45.168,72.006 45.137 C 72.102 45.105,72.225 44.536,72.281 43.873 C 72.336 43.209,72.446 42.667,72.524 42.667 C 72.603 42.667,72.667 42.442,72.667 42.167 C 72.667 41.892,72.603 41.667,72.525 41.667 C 72.447 41.667,72.338 40.974,72.283 40.128 C 72.228 39.281,72.105 38.563,72.008 38.531 C 71.912 38.498,71.833 38.228,71.833 37.931 C 71.833 37.633,71.777 37.333,71.708 37.264 C 71.640 37.195,71.610 36.431,71.642 35.565 C 71.674 34.697,71.627 33.899,71.538 33.787 C 71.448 33.675,71.324 33.227,71.261 32.792 C 71.198 32.356,71.080 32.000,71.000 32.000 C 70.919 32.000,70.802 31.475,70.739 30.833 C 70.675 30.192,70.567 29.667,70.498 29.667 C 70.429 29.667,70.320 29.179,70.256 28.583 C 70.192 27.988,70.082 27.500,70.011 27.500 C 69.941 27.500,69.835 26.886,69.778 26.137 C 69.720 25.387,69.606 24.731,69.524 24.678 C 69.442 24.626,69.322 24.340,69.258 24.042 C 69.193 23.744,69.081 23.500,69.008 23.500 C 68.936 23.500,68.827 23.125,68.766 22.667 C 68.705 22.208,68.583 21.833,68.494 21.833 C 68.406 21.833,68.333 21.683,68.333 21.500 C 68.333 21.317,68.277 21.167,68.207 21.167 C 68.138 21.167,68.108 20.829,68.141 20.417 C 68.174 20.002,68.128 19.667,68.038 19.667 C 67.949 19.667,67.838 19.320,67.790 18.896 C 67.742 18.472,67.629 18.078,67.539 18.021 C 67.448 17.964,67.320 17.594,67.254 17.200 C 67.186 16.791,67.005 16.402,66.834 16.295 C 66.669 16.192,66.568 16.018,66.610 15.908 C 66.651 15.799,66.569 15.665,66.426 15.610 C 66.283 15.555,66.167 15.388,66.167 15.238 C 66.167 15.087,65.979 14.817,65.750 14.637 C 65.521 14.457,65.333 14.219,65.333 14.108 C 65.333 13.998,65.118 13.719,64.856 13.488 C 64.593 13.258,64.325 12.901,64.260 12.697 C 64.189 12.474,64.029 12.343,63.862 12.371 C 63.709 12.396,63.601 12.327,63.622 12.216 C 63.673 11.958,60.546 8.826,60.290 8.878 C 60.183 8.899,60.019 8.748,59.925 8.542 C 59.831 8.335,59.678 8.163,59.585 8.160 C 59.493 8.156,59.233 7.931,59.008 7.660 C 58.783 7.388,58.529 7.167,58.444 7.167 C 58.358 7.167,58.114 6.979,57.902 6.750 C 57.690 6.521,57.397 6.333,57.253 6.333 C 57.108 6.333,56.946 6.221,56.894 6.083 C 56.841 5.946,56.691 5.833,56.560 5.833 C 56.430 5.833,56.280 5.723,56.229 5.588 C 56.177 5.453,55.879 5.295,55.567 5.236 C 55.255 5.177,55.000 5.063,55.000 4.981 C 55.000 4.900,54.885 4.833,54.745 4.833 C 54.604 4.833,54.449 4.726,54.398 4.596 C 54.348 4.465,54.013 4.309,53.654 4.248 C 53.294 4.187,53.000 4.069,53.000 3.985 C 53.000 3.902,52.893 3.833,52.762 3.833 C 52.631 3.833,52.403 3.713,52.256 3.565 C 52.094 3.403,51.822 3.328,51.571 3.376 C 51.292 3.430,51.085 3.357,50.944 3.155 C 50.810 2.964,50.414 2.811,49.866 2.739 C 49.390 2.675,49.000 2.549,49.000 2.457 C 49.000 2.358,48.696 2.324,48.250 2.375 C 47.837 2.421,47.500 2.393,47.500 2.313 C 47.500 2.232,46.712 2.167,45.750 2.167 C 44.781 2.167,44.000 2.097,44.000 2.011 C 44.000 1.926,43.400 1.804,42.667 1.740 C 41.933 1.676,41.333 1.565,41.333 1.494 C 41.333 1.423,40.940 1.311,40.458 1.245 C 39.977 1.180,39.535 1.050,39.476 0.956 C 39.414 0.860,38.314 0.750,36.934 0.703 C 35.595 0.658,34.500 0.567,34.500 0.502 C 34.500 0.165,30.036 -0.106,28.208 0.121 M25.699 20.399 C 29.771 21.432,32.738 23.801,34.488 27.417 C 35.474 29.455,35.557 29.333,33.192 29.333 L 31.237 29.333 30.660 28.377 C 28.243 24.373,22.941 22.698,18.950 24.678 C 8.965 29.632,12.343 46.577,23.193 45.959 C 27.182 45.732,31.833 41.033,31.833 37.229 L 31.833 36.833 26.250 36.833 L 20.667 36.833 20.667 34.917 L 20.667 33.000 27.508 33.000 C 35.772 33.000,35.833 33.017,35.833 35.313 C 35.833 41.187,32.008 47.143,27.043 49.001 C 16.225 53.048,6.364 42.083,9.882 29.917 C 11.890 22.972,18.993 18.698,25.699 20.399 M50.338 20.279 C 50.856 20.585,51.039 20.917,52.391 24.000 C 55.054 30.071,57.212 34.975,57.419 35.428 C 57.548 35.710,58.175 37.135,58.811 38.595 C 60.584 42.662,62.415 46.834,62.792 47.667 C 63.214 48.596,63.667 49.686,63.667 49.770 C 63.667 49.805,62.725 49.833,61.575 49.833 L 59.483 49.833 59.230 49.208 C 58.717 47.940,57.776 45.742,57.642 45.500 C 57.567 45.362,56.372 42.662,54.988 39.500 C 53.604 36.337,52.372 33.525,52.249 33.250 C 51.943 32.562,50.048 28.227,49.716 27.453 C 49.361 26.628,49.484 26.425,47.250 31.500 C 46.180 33.929,44.905 36.817,44.416 37.917 C 43.927 39.017,43.119 40.854,42.620 42.000 C 42.122 43.146,41.561 44.421,41.375 44.833 C 40.681 46.374,39.531 49.096,39.423 49.458 C 39.297 49.879,35.167 50.068,35.167 49.653 C 35.167 49.498,37.120 44.870,38.011 42.917 C 38.178 42.550,39.187 40.262,40.254 37.833 C 41.320 35.404,42.558 32.592,43.003 31.583 C 43.448 30.575,44.387 28.438,45.089 26.833 C 45.791 25.229,46.662 23.242,47.024 22.417 C 48.026 20.138,49.017 19.499,50.338 20.279 " stroke="none" fill="#ec2c24" fill-rule="evenodd"></path><path id="path1" d="M19.670 20.345 C 7.408 23.555,5.279 41.637,16.386 48.230 C 24.207 52.872,34.320 47.212,35.655 37.446 C 36.275 32.910,36.440 33.000,27.508 33.000 L 20.667 33.000 20.667 34.917 L 20.667 36.833 26.250 36.833 L 31.833 36.833 31.833 37.229 C 31.833 41.033,27.182 45.732,23.193 45.959 C 12.343 46.577,8.965 29.632,18.950 24.678 C 22.941 22.698,28.243 24.373,30.660 28.377 L 31.237 29.333 33.192 29.333 C 35.557 29.333,35.474 29.455,34.488 27.417 C 31.838 21.942,25.367 18.853,19.670 20.345 M48.178 20.458 C 47.906 20.710,47.387 21.592,47.024 22.417 C 46.662 23.242,45.791 25.229,45.089 26.833 C 44.387 28.438,43.448 30.575,43.003 31.583 C 42.558 32.592,41.320 35.404,40.254 37.833 C 39.187 40.262,38.178 42.550,38.011 42.917 C 37.120 44.870,35.167 49.498,35.167 49.653 C 35.167 50.068,39.297 49.879,39.423 49.458 C 39.531 49.096,40.681 46.374,41.375 44.833 C 41.561 44.421,42.122 43.146,42.620 42.000 C 43.119 40.854,43.927 39.017,44.416 37.917 C 44.905 36.817,46.180 33.929,47.250 31.500 C 49.484 26.425,49.361 26.628,49.716 27.453 C 50.048 28.227,51.943 32.562,52.249 33.250 C 52.372 33.525,53.604 36.337,54.988 39.500 C 56.372 42.662,57.567 45.362,57.642 45.500 C 57.776 45.742,58.717 47.940,59.230 49.208 L 59.483 49.833 61.575 49.833 C 62.725 49.833,63.667 49.805,63.667 49.770 C 63.667 49.686,63.214 48.596,62.792 47.667 C 62.415 46.834,60.584 42.662,58.811 38.595 C 58.175 37.135,57.548 35.710,57.419 35.428 C 57.212 34.975,55.054 30.071,52.391 24.000 C 51.039 20.917,50.856 20.585,50.338 20.279 C 49.609 19.849,48.759 19.919,48.178 20.458 " stroke="none" fill="#fbf7f6" fill-rule="evenodd"></path><path id="path2" d="M26.167 0.500 C 26.167 0.592,26.279 0.667,26.417 0.667 C 26.554 0.667,26.667 0.592,26.667 0.500 C 26.667 0.408,26.554 0.333,26.417 0.333 C 26.279 0.333,26.167 0.408,26.167 0.500 M34.667 0.500 C 34.667 0.592,34.817 0.667,35.000 0.667 C 35.183 0.667,35.333 0.592,35.333 0.500 C 35.333 0.408,35.183 0.333,35.000 0.333 C 34.817 0.333,34.667 0.408,34.667 0.500 M39.583 1.000 C 39.640 1.092,39.799 1.167,39.936 1.167 C 40.074 1.167,40.140 1.092,40.083 1.000 C 40.027 0.908,39.868 0.833,39.730 0.833 C 39.593 0.833,39.527 0.908,39.583 1.000 M44.000 2.000 C 44.000 2.092,44.319 2.166,44.708 2.164 C 45.227 2.162,45.350 2.118,45.167 2.000 C 44.838 1.787,44.000 1.787,44.000 2.000 M20.486 2.647 C 20.001 3.142,19.935 3.424,20.413 2.956 C 20.672 2.702,20.854 2.468,20.817 2.436 C 20.780 2.403,20.631 2.498,20.486 2.647 M19.029 4.343 C 18.816 4.612,18.674 4.833,18.713 4.833 C 18.822 4.833,19.667 4.029,19.667 3.925 C 19.667 3.706,19.388 3.889,19.029 4.343 M18.122 5.500 C 17.965 5.683,17.894 5.833,17.965 5.833 C 18.035 5.833,18.221 5.683,18.378 5.500 C 18.535 5.317,18.606 5.167,18.535 5.167 C 18.465 5.167,18.279 5.317,18.122 5.500 M64.333 12.888 C 64.333 13.049,65.014 13.708,65.097 13.626 C 65.134 13.588,64.978 13.381,64.749 13.166 C 64.521 12.951,64.333 12.826,64.333 12.888 M308.042 19.995 C 307.884 20.248,307.833 22.014,307.831 27.289 C 307.829 31.118,307.773 34.171,307.706 34.075 C 307.510 33.795,306.403 33.167,306.105 33.167 C 305.956 33.167,305.833 33.092,305.833 33.000 C 305.833 32.908,305.740 32.833,305.625 32.832 C 305.510 32.832,305.192 32.703,304.917 32.546 C 304.307 32.197,299.392 32.109,298.984 32.439 C 298.855 32.543,298.506 32.680,298.208 32.744 C 297.910 32.808,297.667 32.929,297.667 33.013 C 297.667 33.098,297.489 33.167,297.272 33.167 C 297.056 33.167,296.688 33.317,296.455 33.500 C 296.221 33.683,295.983 33.833,295.925 33.833 C 295.705 33.833,293.667 35.654,293.667 35.850 C 293.667 35.926,293.460 36.201,293.208 36.460 C 292.956 36.719,292.600 37.228,292.417 37.591 C 292.233 37.953,292.038 38.287,291.982 38.333 C 291.927 38.379,291.830 38.698,291.766 39.042 C 291.703 39.385,291.583 39.667,291.498 39.667 C 291.414 39.667,291.295 40.043,291.234 40.504 C 291.173 40.964,291.058 41.381,290.978 41.430 C 290.790 41.547,290.789 46.119,290.977 46.236 C 291.056 46.284,291.165 46.648,291.219 47.045 C 291.273 47.441,291.433 47.987,291.574 48.257 C 291.716 48.528,291.832 48.881,291.832 49.042 C 291.833 49.202,291.908 49.333,292.000 49.333 C 292.092 49.333,292.167 49.440,292.167 49.571 C 292.167 49.702,292.269 49.912,292.395 50.038 C 292.520 50.163,292.669 50.412,292.726 50.591 C 292.783 50.770,293.018 51.120,293.248 51.368 C 293.478 51.616,293.667 51.897,293.667 51.993 C 293.667 52.088,293.723 52.169,293.792 52.171 C 293.860 52.174,294.320 52.549,294.814 53.004 C 295.307 53.460,295.814 53.833,295.939 53.833 C 296.064 53.833,296.167 53.908,296.167 54.000 C 296.167 54.092,296.270 54.167,296.396 54.167 C 296.523 54.167,296.720 54.280,296.835 54.418 C 296.949 54.556,297.334 54.716,297.688 54.773 C 298.043 54.830,298.333 54.937,298.333 55.011 C 298.333 55.085,298.672 55.197,299.085 55.259 C 299.499 55.321,299.878 55.438,299.929 55.519 C 300.047 55.712,303.619 55.712,303.738 55.519 C 303.788 55.438,304.168 55.321,304.581 55.259 C 304.995 55.197,305.333 55.076,305.333 54.990 C 305.333 54.904,305.477 54.833,305.652 54.833 C 305.827 54.833,306.371 54.570,306.860 54.248 C 307.349 53.926,307.761 53.720,307.776 53.790 C 307.792 53.859,307.850 54.123,307.905 54.375 L 308.006 54.833 312.171 54.833 L 316.335 54.833 316.292 37.292 L 316.250 19.750 312.250 19.706 C 308.403 19.663,308.242 19.674,308.042 19.995 M98.333 22.006 C 98.013 22.086,97.075 22.222,96.250 22.308 C 94.498 22.492,93.167 22.796,93.167 23.013 C 93.167 23.098,93.017 23.167,92.835 23.167 C 92.416 23.167,90.833 23.850,90.833 24.031 C 90.833 24.106,90.718 24.167,90.577 24.167 C 90.316 24.167,89.296 24.812,89.194 25.042 C 89.164 25.110,89.042 25.167,88.923 25.167 C 88.617 25.167,85.667 28.110,85.667 28.415 C 85.667 28.553,85.589 28.667,85.495 28.667 C 85.400 28.667,85.273 28.798,85.212 28.958 C 85.152 29.119,85.004 29.349,84.884 29.470 C 84.765 29.591,84.667 29.835,84.667 30.012 C 84.667 30.189,84.593 30.333,84.503 30.333 C 84.413 30.333,84.293 30.521,84.235 30.750 C 84.178 30.979,84.064 31.167,83.982 31.167 C 83.900 31.167,83.833 31.298,83.832 31.458 C 83.832 31.619,83.726 31.951,83.598 32.197 C 83.470 32.443,83.316 32.893,83.256 33.197 C 83.196 33.501,83.081 33.900,82.999 34.083 C 82.327 35.597,82.331 42.325,83.006 43.539 C 83.094 43.699,83.169 43.999,83.172 44.206 C 83.175 44.414,83.323 44.883,83.500 45.250 C 83.677 45.617,83.825 46.012,83.828 46.128 C 83.831 46.245,84.002 46.620,84.208 46.962 C 84.415 47.304,84.769 47.940,84.997 48.375 C 85.224 48.811,85.468 49.167,85.538 49.167 C 85.609 49.167,85.667 49.264,85.667 49.383 C 85.667 49.502,85.888 49.783,86.160 50.008 C 86.431 50.233,86.656 50.486,86.660 50.571 C 86.666 50.720,87.801 51.833,87.946 51.833 C 87.984 51.833,88.181 52.008,88.383 52.221 C 88.585 52.434,88.881 52.656,89.042 52.716 C 89.202 52.775,89.333 52.892,89.333 52.977 C 89.333 53.061,89.521 53.178,89.750 53.235 C 89.979 53.293,90.167 53.407,90.167 53.490 C 90.167 53.573,90.392 53.690,90.667 53.750 C 90.942 53.810,91.167 53.921,91.167 53.995 C 91.167 54.070,91.372 54.182,91.623 54.245 C 91.874 54.308,92.126 54.435,92.183 54.526 C 92.239 54.617,92.596 54.734,92.976 54.785 C 93.356 54.836,93.667 54.938,93.667 55.012 C 93.667 55.086,94.023 55.198,94.458 55.261 C 94.894 55.324,95.355 55.460,95.484 55.563 C 95.808 55.822,102.692 55.822,103.016 55.563 C 103.145 55.460,103.606 55.324,104.042 55.261 C 104.477 55.198,104.833 55.086,104.833 55.012 C 104.833 54.938,105.144 54.836,105.524 54.785 C 105.904 54.734,106.261 54.617,106.317 54.526 C 106.374 54.435,106.626 54.308,106.878 54.245 C 107.130 54.181,107.378 54.063,107.428 53.982 C 107.478 53.900,107.619 53.833,107.741 53.833 C 108.028 53.833,109.833 52.663,109.833 52.476 C 109.833 52.398,109.943 52.333,110.077 52.333 C 110.337 52.333,112.184 50.530,112.638 49.833 C 112.787 49.604,113.004 49.357,113.121 49.283 C 113.238 49.210,113.333 49.048,113.333 48.922 C 113.333 48.797,113.390 48.669,113.458 48.639 C 113.651 48.553,114.333 47.217,114.333 46.925 C 114.333 46.783,114.408 46.667,114.500 46.667 C 114.592 46.667,114.667 46.573,114.668 46.458 C 114.668 46.344,114.786 46.025,114.930 45.750 C 115.074 45.475,115.234 44.875,115.285 44.417 C 115.337 43.958,115.446 43.498,115.527 43.394 C 115.717 43.152,116.022 40.194,116.056 38.250 L 116.083 36.750 107.625 36.707 L 99.167 36.664 99.167 40.248 L 99.167 43.833 102.316 43.833 L 105.465 43.833 105.312 44.511 C 105.229 44.883,104.973 45.390,104.745 45.636 C 104.517 45.882,104.290 46.207,104.242 46.358 C 104.194 46.510,103.970 46.680,103.744 46.737 C 103.518 46.793,103.333 46.907,103.333 46.990 C 103.333 47.073,103.090 47.192,102.792 47.256 C 102.494 47.320,102.147 47.455,102.021 47.557 C 101.707 47.811,97.464 47.814,97.151 47.561 C 97.022 47.457,96.673 47.320,96.375 47.256 C 96.077 47.192,95.833 47.079,95.833 47.005 C 95.833 46.930,95.665 46.826,95.458 46.772 C 94.832 46.609,93.167 44.841,93.167 44.340 C 93.167 44.245,93.098 44.167,93.013 44.167 C 92.929 44.167,92.810 43.942,92.750 43.667 C 92.690 43.392,92.577 43.167,92.499 43.167 C 92.421 43.167,92.309 42.735,92.251 42.208 C 92.192 41.681,92.069 41.095,91.977 40.905 C 91.667 40.268,92.092 35.426,92.480 35.175 C 92.558 35.125,92.675 34.896,92.741 34.667 C 92.944 33.957,93.342 33.167,93.497 33.167 C 93.578 33.167,93.693 33.013,93.753 32.825 C 93.869 32.459,94.921 31.333,95.147 31.333 C 95.221 31.333,95.455 31.183,95.667 31.000 C 95.878 30.817,96.190 30.667,96.359 30.667 C 96.528 30.667,96.667 30.596,96.667 30.510 C 96.667 30.424,97.005 30.303,97.419 30.241 C 97.832 30.179,98.212 30.062,98.262 29.981 C 98.380 29.790,100.667 29.787,100.667 29.978 C 100.667 30.058,100.977 30.164,101.357 30.215 C 101.737 30.266,102.093 30.377,102.149 30.462 C 102.205 30.546,102.456 30.666,102.708 30.728 C 102.960 30.789,103.167 30.907,103.167 30.990 C 103.167 31.072,103.429 31.302,103.750 31.500 C 104.071 31.698,104.333 31.933,104.333 32.021 C 104.333 32.109,104.491 32.346,104.683 32.549 C 104.876 32.751,105.216 33.310,105.438 33.792 C 105.820 34.617,106.833 35.133,106.833 34.502 C 106.833 34.411,107.133 34.289,107.500 34.231 C 107.867 34.172,108.167 34.059,108.167 33.979 C 108.167 33.899,108.311 33.833,108.488 33.833 C 108.665 33.833,108.922 33.721,109.060 33.583 C 109.197 33.446,109.446 33.331,109.613 33.328 C 109.780 33.325,110.217 33.177,110.583 33.000 C 110.950 32.823,111.344 32.675,111.458 32.672 C 111.573 32.669,111.667 32.592,111.667 32.500 C 111.667 32.408,111.799 32.333,111.961 32.333 C 112.123 32.333,112.535 32.183,112.877 32.000 C 113.219 31.817,113.648 31.667,113.830 31.667 C 114.492 31.667,114.172 29.678,113.458 29.361 C 113.390 29.331,113.333 29.197,113.333 29.064 C 113.333 28.931,113.224 28.781,113.090 28.729 C 112.956 28.678,112.797 28.481,112.737 28.292 C 112.677 28.103,112.449 27.782,112.231 27.580 C 112.012 27.377,111.833 27.143,111.833 27.058 C 111.833 26.974,111.447 26.570,110.975 26.161 C 110.502 25.752,109.985 25.293,109.825 25.141 C 109.664 24.990,109.376 24.816,109.183 24.755 C 108.991 24.694,108.833 24.582,108.833 24.505 C 108.833 24.429,108.627 24.283,108.375 24.182 C 108.123 24.082,107.692 23.855,107.417 23.678 C 107.142 23.502,106.804 23.350,106.667 23.340 C 106.529 23.330,106.117 23.177,105.750 23.000 C 105.383 22.823,104.930 22.675,104.742 22.672 C 104.554 22.669,104.329 22.595,104.242 22.508 C 104.155 22.421,103.258 22.272,102.250 22.177 C 101.242 22.081,100.079 21.972,99.667 21.933 C 99.254 21.894,98.654 21.927,98.333 22.006 M330.367 23.033 C 330.257 23.143,330.167 23.322,330.167 23.431 C 330.167 23.540,330.055 23.843,329.918 24.106 C 329.781 24.369,329.668 24.715,329.668 24.875 C 329.667 25.035,329.600 25.167,329.519 25.167 C 329.437 25.167,329.319 25.438,329.257 25.771 C 329.195 26.103,329.078 26.496,328.997 26.646 C 328.693 27.205,328.355 28.101,328.249 28.625 C 328.189 28.923,328.077 29.167,328.000 29.167 C 327.923 29.167,327.808 29.410,327.744 29.708 C 327.680 30.006,327.570 30.325,327.500 30.417 C 327.430 30.508,327.320 30.827,327.256 31.125 C 327.192 31.423,327.076 31.667,326.997 31.667 C 326.918 31.667,326.803 32.004,326.741 32.417 C 326.679 32.829,326.562 33.167,326.481 33.167 C 326.400 33.167,326.333 33.260,326.332 33.375 C 326.332 33.490,326.226 33.785,326.098 34.030 C 325.970 34.276,325.811 34.724,325.745 35.025 C 325.678 35.326,325.562 35.687,325.487 35.828 C 325.189 36.382,324.853 37.277,324.749 37.792 C 324.689 38.090,324.575 38.333,324.494 38.333 C 324.414 38.333,324.299 38.597,324.239 38.919 C 324.178 39.240,324.062 39.545,323.981 39.595 C 323.900 39.645,323.831 39.813,323.828 39.968 C 323.825 40.123,323.677 40.550,323.500 40.917 C 323.323 41.283,323.175 41.752,323.172 41.958 C 323.169 42.165,323.092 42.333,323.000 42.333 C 322.908 42.333,322.833 42.427,322.832 42.542 C 322.832 42.656,322.726 42.951,322.598 43.197 C 322.470 43.443,322.314 43.875,322.252 44.157 C 322.150 44.623,321.864 45.335,321.510 46.005 C 321.436 46.146,321.322 46.507,321.255 46.808 C 321.189 47.109,321.030 47.557,320.902 47.803 C 320.774 48.049,320.668 48.344,320.668 48.458 C 320.667 48.573,320.602 48.667,320.522 48.667 C 320.442 48.667,320.336 48.977,320.285 49.357 C 320.234 49.737,320.117 50.094,320.026 50.151 C 319.935 50.207,319.806 50.478,319.740 50.752 C 319.674 51.026,319.565 51.325,319.496 51.417 C 319.428 51.508,319.320 51.827,319.256 52.125 C 319.192 52.423,319.076 52.667,318.997 52.667 C 318.918 52.667,318.803 53.004,318.741 53.417 C 318.679 53.829,318.562 54.167,318.481 54.167 C 318.400 54.167,318.333 54.317,318.333 54.500 C 318.333 54.825,318.444 54.833,323.044 54.833 L 327.755 54.833 328.044 54.166 C 328.203 53.798,328.333 53.390,328.333 53.259 C 328.333 53.127,328.400 52.979,328.481 52.928 C 328.562 52.878,328.678 52.577,328.737 52.259 C 328.797 51.941,328.955 51.471,329.089 51.215 C 329.222 50.959,329.332 50.671,329.332 50.575 C 329.333 50.479,329.427 50.200,329.542 49.955 L 329.750 49.510 335.200 49.463 C 341.238 49.412,340.824 49.339,340.831 50.458 C 340.832 50.665,340.899 50.833,340.979 50.833 C 341.059 50.833,341.172 51.133,341.231 51.500 C 341.289 51.867,341.405 52.167,341.487 52.167 C 341.570 52.167,341.689 52.473,341.752 52.847 C 341.816 53.221,341.972 53.727,342.099 53.972 C 342.227 54.217,342.332 54.510,342.332 54.625 C 342.333 54.787,343.399 54.833,347.102 54.833 L 351.870 54.833 351.762 54.257 C 351.703 53.940,351.545 53.471,351.411 53.215 C 351.278 52.959,351.168 52.619,351.168 52.458 C 351.167 52.298,351.092 52.167,351.000 52.167 C 350.908 52.167,350.831 52.035,350.828 51.875 C 350.825 51.715,350.677 51.283,350.500 50.917 C 350.323 50.550,350.175 50.086,350.172 49.885 C 350.169 49.684,350.097 49.477,350.013 49.425 C 349.928 49.372,349.810 49.105,349.750 48.831 C 349.689 48.557,349.580 48.333,349.506 48.333 C 349.432 48.333,349.321 47.996,349.259 47.583 C 349.197 47.171,349.076 46.833,348.990 46.833 C 348.904 46.833,348.833 46.698,348.833 46.532 C 348.833 46.366,348.723 46.085,348.589 45.907 C 348.454 45.729,348.339 45.433,348.333 45.250 C 348.327 45.067,348.177 44.617,348.000 44.250 C 347.823 43.883,347.675 43.457,347.672 43.302 C 347.669 43.146,347.600 42.979,347.519 42.928 C 347.438 42.878,347.322 42.574,347.261 42.252 C 347.201 41.930,347.081 41.667,346.994 41.667 C 346.908 41.667,346.789 41.367,346.731 41.000 C 346.672 40.633,346.559 40.333,346.479 40.333 C 346.399 40.333,346.333 40.202,346.332 40.042 C 346.332 39.881,346.222 39.541,346.089 39.285 C 345.955 39.029,345.797 38.560,345.738 38.243 C 345.678 37.926,345.563 37.667,345.481 37.667 C 345.400 37.667,345.333 37.531,345.333 37.365 C 345.333 37.199,345.223 36.918,345.089 36.740 C 344.954 36.562,344.842 36.278,344.839 36.109 C 344.834 35.820,344.626 35.267,344.077 34.083 C 343.949 33.808,343.793 33.363,343.730 33.094 C 343.667 32.826,343.515 32.413,343.392 32.178 C 343.269 31.942,343.168 31.619,343.168 31.458 C 343.167 31.298,343.092 31.167,343.000 31.167 C 342.908 31.167,342.833 30.997,342.833 30.789 C 342.833 30.582,342.683 30.132,342.500 29.790 C 342.317 29.448,342.167 29.054,342.167 28.915 C 342.167 28.776,342.094 28.532,342.006 28.373 C 341.668 27.765,341.167 26.508,341.167 26.269 C 341.167 26.132,341.100 25.979,341.019 25.928 C 340.938 25.878,340.822 25.574,340.761 25.252 C 340.701 24.930,340.580 24.667,340.492 24.667 C 340.405 24.667,340.333 24.509,340.333 24.317 C 340.333 24.124,340.212 23.712,340.064 23.400 L 339.795 22.833 335.181 22.833 C 331.814 22.833,330.513 22.887,330.367 23.033 M250.042 26.583 C 249.891 26.753,249.833 27.657,249.833 29.819 L 249.833 32.819 248.625 32.868 L 247.417 32.917 247.372 36.375 L 247.327 39.833 248.580 39.833 L 249.833 39.833 249.833 47.333 L 249.833 54.833 254.083 54.833 L 258.333 54.833 258.333 47.333 L 258.333 39.833 260.503 39.833 L 262.673 39.833 262.628 36.375 L 262.583 32.917 260.458 32.870 L 258.333 32.823 258.333 29.778 C 258.333 27.632,258.274 26.674,258.133 26.533 C 257.819 26.219,250.322 26.265,250.042 26.583 M375.367 26.533 C 375.226 26.674,375.167 27.633,375.167 29.783 L 375.167 32.833 374.000 32.833 L 372.833 32.833 372.833 36.333 L 372.833 39.833 374.000 39.833 L 375.167 39.833 375.167 47.333 L 375.167 54.833 379.250 54.833 L 383.333 54.833 383.333 47.333 L 383.333 39.833 385.500 39.833 L 387.667 39.833 387.667 36.333 L 387.667 32.833 385.500 32.833 L 383.333 32.833 383.333 29.583 L 383.333 26.333 379.450 26.333 C 376.652 26.333,375.511 26.389,375.367 26.533 M69.833 27.177 C 69.833 27.365,69.908 27.473,70.000 27.417 C 70.092 27.360,70.167 27.206,70.167 27.073 C 70.167 26.941,70.092 26.833,70.000 26.833 C 69.908 26.833,69.833 26.988,69.833 27.177 M70.333 29.323 C 70.333 29.512,70.408 29.667,70.500 29.667 C 70.592 29.667,70.667 29.559,70.667 29.427 C 70.667 29.294,70.592 29.140,70.500 29.083 C 70.408 29.027,70.333 29.135,70.333 29.323 M127.583 32.281 C 127.308 32.326,127.008 32.423,126.917 32.496 C 126.825 32.568,126.506 32.680,126.208 32.744 C 125.910 32.808,125.667 32.929,125.667 33.013 C 125.667 33.098,125.489 33.167,125.272 33.167 C 125.056 33.167,124.688 33.317,124.455 33.500 C 124.221 33.683,123.949 33.833,123.849 33.833 C 123.749 33.833,123.667 33.908,123.667 34.000 C 123.667 34.092,123.565 34.167,123.441 34.167 C 123.155 34.167,120.667 36.642,120.667 36.927 C 120.667 37.044,120.610 37.164,120.542 37.194 C 120.322 37.292,119.667 38.637,119.667 38.991 C 119.667 39.179,119.601 39.333,119.521 39.333 C 119.441 39.333,119.326 39.648,119.264 40.033 C 119.202 40.418,119.065 40.838,118.959 40.966 C 118.695 41.285,118.677 46.359,118.939 46.683 C 119.044 46.811,119.182 47.235,119.246 47.625 C 119.310 48.015,119.431 48.333,119.515 48.333 C 119.598 48.333,119.667 48.493,119.667 48.689 C 119.667 49.045,120.287 50.202,120.535 50.306 C 120.607 50.336,120.667 50.468,120.667 50.599 C 120.667 50.730,120.817 50.965,121.000 51.122 C 121.183 51.279,121.333 51.464,121.333 51.534 C 121.333 51.946,124.404 54.333,124.934 54.333 C 125.047 54.333,125.166 54.413,125.198 54.511 C 125.231 54.608,125.574 54.731,125.962 54.783 C 126.350 54.835,126.667 54.938,126.667 55.012 C 126.667 55.086,127.005 55.197,127.419 55.259 C 127.832 55.321,128.212 55.438,128.262 55.519 C 128.380 55.710,134.285 55.713,134.403 55.522 C 134.452 55.442,134.869 55.327,135.330 55.266 C 135.790 55.205,136.167 55.083,136.167 54.994 C 136.167 54.906,136.327 54.833,136.523 54.833 C 136.942 54.833,138.333 54.170,138.333 53.970 C 138.333 53.895,138.447 53.833,138.585 53.833 C 138.723 53.833,138.965 53.683,139.122 53.500 C 139.279 53.317,139.465 53.167,139.535 53.167 C 139.710 53.167,140.333 52.622,140.333 52.469 C 140.333 52.401,140.558 52.115,140.833 51.833 C 141.108 51.552,141.333 51.212,141.333 51.078 C 141.333 50.943,141.408 50.833,141.500 50.833 C 141.592 50.833,141.667 50.730,141.667 50.604 C 141.667 50.477,141.773 50.286,141.904 50.177 C 142.034 50.069,142.191 49.685,142.252 49.324 C 142.313 48.962,142.431 48.667,142.515 48.667 C 142.729 48.667,142.705 47.710,142.487 47.576 C 142.212 47.405,135.154 47.495,134.822 47.673 C 134.661 47.759,134.217 48.149,133.834 48.540 L 133.138 49.250 131.483 49.307 C 129.319 49.382,128.025 48.775,127.731 47.546 C 127.670 47.291,127.565 47.008,127.498 46.917 C 127.430 46.825,127.341 46.506,127.300 46.208 L 127.224 45.667 135.049 45.667 L 142.873 45.667 142.805 42.990 C 142.760 41.201,142.673 40.273,142.543 40.193 C 142.436 40.127,142.298 39.757,142.237 39.370 C 142.175 38.983,142.065 38.667,141.992 38.667 C 141.919 38.667,141.810 38.442,141.750 38.167 C 141.690 37.892,141.579 37.667,141.505 37.667 C 141.430 37.667,141.319 37.464,141.257 37.217 C 141.194 36.969,140.961 36.598,140.738 36.391 C 140.516 36.185,140.333 35.943,140.333 35.854 C 140.333 35.765,139.902 35.330,139.375 34.888 C 138.848 34.445,138.392 34.027,138.361 33.958 C 138.331 33.890,138.208 33.833,138.090 33.833 C 137.971 33.833,137.782 33.723,137.670 33.588 C 137.558 33.453,137.212 33.294,136.900 33.236 C 136.588 33.177,136.333 33.069,136.333 32.995 C 136.333 32.921,136.090 32.808,135.792 32.744 C 135.494 32.680,135.145 32.543,135.016 32.439 C 134.778 32.246,128.604 32.115,127.583 32.281 M181.750 32.279 C 181.475 32.323,181.179 32.428,181.092 32.513 C 181.005 32.597,180.817 32.669,180.675 32.672 C 180.533 32.675,180.117 32.823,179.750 33.000 C 179.383 33.177,178.990 33.325,178.875 33.328 C 178.760 33.331,178.667 33.400,178.667 33.482 C 178.667 33.564,178.479 33.678,178.250 33.735 C 178.021 33.793,177.833 33.913,177.833 34.003 C 177.833 34.093,177.752 34.167,177.652 34.167 C 177.473 34.167,176.789 34.730,176.099 35.446 C 175.134 36.447,174.840 36.833,174.740 37.231 C 174.680 37.471,174.578 37.667,174.514 37.667 C 174.391 37.667,173.834 38.836,173.832 39.098 C 173.832 39.181,173.700 39.475,173.541 39.750 C 173.168 40.391,173.093 47.670,173.458 47.792 C 173.573 47.830,173.667 47.972,173.667 48.108 C 173.667 48.244,173.873 48.775,174.125 49.288 C 174.805 50.672,174.900 50.833,175.040 50.833 C 175.109 50.833,175.167 50.908,175.167 51.000 C 175.167 51.092,175.321 51.335,175.510 51.542 C 176.289 52.393,177.090 53.164,177.196 53.165 C 177.259 53.166,177.427 53.284,177.570 53.427 C 177.926 53.783,180.001 54.833,180.348 54.833 C 180.502 54.833,180.843 54.945,181.106 55.082 C 181.369 55.219,181.748 55.332,181.948 55.332 C 182.149 55.333,182.360 55.408,182.417 55.500 C 182.546 55.709,188.609 55.727,188.738 55.519 C 188.788 55.438,189.168 55.321,189.581 55.259 C 189.995 55.197,190.333 55.086,190.333 55.012 C 190.333 54.938,190.631 54.837,190.995 54.788 C 191.360 54.740,191.777 54.580,191.924 54.433 C 192.071 54.287,192.298 54.167,192.429 54.167 C 192.560 54.167,192.667 54.092,192.667 54.000 C 192.667 53.908,192.764 53.833,192.883 53.833 C 193.002 53.833,193.283 53.612,193.508 53.340 C 193.733 53.069,194.009 52.844,194.121 52.840 C 194.234 52.837,194.459 52.630,194.621 52.381 C 194.784 52.132,195.083 51.749,195.286 51.529 C 195.490 51.309,195.706 50.973,195.767 50.781 C 195.828 50.589,195.980 50.330,196.105 50.204 C 196.231 50.079,196.333 49.832,196.333 49.655 C 196.333 49.478,196.404 49.333,196.490 49.333 C 196.715 49.333,196.910 47.843,196.710 47.644 C 196.347 47.280,188.667 47.474,188.667 47.847 C 188.667 47.925,188.385 48.273,188.042 48.619 L 187.417 49.250 185.410 49.250 L 183.403 49.250 182.785 48.650 C 182.445 48.320,182.167 47.963,182.167 47.858 C 182.167 47.753,182.093 47.667,182.002 47.667 C 181.911 47.667,181.789 47.365,181.730 46.996 C 181.671 46.628,181.558 46.286,181.478 46.236 C 180.634 45.715,181.285 45.667,189.146 45.667 C 195.880 45.667,196.988 45.632,197.166 45.417 C 197.391 45.147,197.253 41.739,197.004 41.417 C 196.933 41.325,196.821 40.875,196.755 40.417 C 196.689 39.958,196.576 39.508,196.504 39.417 C 196.431 39.325,196.320 39.006,196.256 38.708 C 196.192 38.410,196.077 38.167,196.000 38.167 C 195.923 38.167,195.810 37.942,195.750 37.667 C 195.690 37.392,195.571 37.167,195.487 37.167 C 195.402 37.167,195.333 37.084,195.333 36.984 C 195.333 36.741,193.796 34.856,193.583 34.838 C 193.492 34.830,193.216 34.620,192.970 34.370 C 192.386 33.777,190.198 32.667,189.614 32.667 C 189.475 32.667,189.330 32.574,189.293 32.462 C 189.223 32.253,182.871 32.099,181.750 32.279 M228.083 32.273 C 227.808 32.316,227.321 32.464,227.000 32.603 C 226.679 32.742,226.267 32.916,226.083 32.991 C 225.121 33.379,224.363 33.784,224.167 34.014 C 224.121 34.068,223.946 34.187,223.779 34.278 C 223.357 34.508,221.667 36.183,221.667 36.371 C 221.667 36.455,221.573 36.628,221.458 36.756 C 220.962 37.310,220.843 37.499,220.509 38.269 C 220.314 38.717,220.081 39.216,219.990 39.379 C 219.900 39.541,219.780 40.012,219.723 40.425 C 219.666 40.838,219.556 41.216,219.477 41.264 C 219.281 41.385,219.294 46.100,219.491 46.461 C 219.578 46.620,219.696 47.106,219.752 47.542 C 219.808 47.977,219.918 48.333,219.997 48.333 C 220.076 48.333,220.190 48.559,220.250 48.835 C 220.397 49.502,220.820 50.333,221.012 50.333 C 221.097 50.333,221.167 50.431,221.167 50.549 C 221.167 50.902,222.762 52.713,223.695 53.418 C 224.582 54.089,225.915 54.833,226.230 54.833 C 226.358 54.833,226.677 54.945,226.939 55.082 C 227.202 55.219,227.618 55.332,227.865 55.332 C 228.112 55.333,228.360 55.408,228.417 55.500 C 228.544 55.707,232.111 55.725,232.238 55.519 C 232.288 55.438,232.668 55.321,233.081 55.259 C 233.495 55.197,233.833 55.076,233.833 54.990 C 233.833 54.904,233.956 54.833,234.105 54.833 C 234.388 54.833,235.420 54.255,235.804 53.881 C 236.155 53.539,236.308 53.628,236.364 54.208 L 236.417 54.750 240.625 54.795 L 244.833 54.839 244.833 43.836 L 244.833 32.833 240.783 32.833 C 236.407 32.833,236.333 32.848,236.333 33.726 C 236.333 34.192,236.317 34.204,236.029 33.942 C 235.861 33.791,235.668 33.667,235.600 33.667 C 235.532 33.667,235.364 33.554,235.226 33.417 C 235.089 33.279,234.832 33.167,234.655 33.167 C 234.478 33.167,234.333 33.092,234.333 33.000 C 234.333 32.908,234.240 32.833,234.125 32.832 C 234.010 32.832,233.692 32.709,233.417 32.560 C 232.914 32.288,229.263 32.091,228.083 32.273 M272.792 32.279 C 272.448 32.320,272.167 32.424,272.167 32.510 C 272.167 32.596,271.996 32.667,271.787 32.667 C 271.578 32.667,271.260 32.770,271.079 32.895 C 270.898 33.021,270.506 33.177,270.208 33.242 C 269.910 33.307,269.667 33.427,269.667 33.510 C 269.667 33.593,269.479 33.707,269.250 33.765 C 269.021 33.822,268.833 33.939,268.833 34.023 C 268.833 34.108,268.702 34.226,268.542 34.285 C 268.381 34.344,267.800 34.862,267.250 35.435 C 265.992 36.746,265.900 36.862,265.759 37.304 C 265.696 37.504,265.578 37.667,265.496 37.667 C 265.415 37.667,265.299 37.929,265.239 38.250 C 265.179 38.571,265.071 38.833,265.000 38.833 C 264.929 38.833,264.818 39.114,264.753 39.458 C 264.689 39.801,264.549 40.136,264.443 40.202 C 264.175 40.367,264.172 47.185,264.439 47.516 C 264.543 47.645,264.680 47.994,264.744 48.292 C 264.808 48.590,264.929 48.833,265.013 48.833 C 265.098 48.833,265.167 48.956,265.167 49.107 C 265.167 49.372,265.988 50.828,266.422 51.333 C 267.477 52.560,268.723 53.633,269.247 53.764 C 269.478 53.822,269.667 53.923,269.667 53.989 C 269.667 54.172,271.076 54.833,271.467 54.833 C 271.658 54.833,271.857 54.904,271.911 54.990 C 271.964 55.077,272.344 55.198,272.756 55.260 C 273.167 55.321,273.545 55.438,273.595 55.519 C 273.718 55.718,279.428 55.708,279.794 55.509 C 279.953 55.422,280.365 55.307,280.708 55.252 C 281.052 55.197,281.333 55.090,281.333 55.014 C 281.333 54.939,281.644 54.836,282.024 54.785 C 282.404 54.734,282.760 54.630,282.816 54.554 C 282.871 54.479,283.211 54.267,283.570 54.083 C 284.533 53.592,286.462 51.646,286.844 50.781 C 286.932 50.581,287.140 50.192,287.307 49.917 C 287.723 49.229,288.060 47.827,287.858 47.624 C 287.400 47.167,279.667 47.538,279.667 48.018 C 279.667 48.240,279.241 48.667,279.020 48.667 C 278.927 48.667,278.776 48.798,278.687 48.958 C 278.479 49.330,274.748 49.398,274.329 49.039 C 274.194 48.922,273.925 48.697,273.731 48.539 C 273.270 48.161,272.667 46.821,272.667 46.176 L 272.667 45.667 280.413 45.667 L 288.160 45.667 288.271 45.226 C 288.416 44.647,288.215 41.177,288.022 40.937 C 287.939 40.834,287.821 40.487,287.760 40.167 C 287.577 39.219,286.229 36.333,285.969 36.333 C 285.894 36.333,285.833 36.245,285.833 36.138 C 285.833 35.876,284.500 34.613,283.624 34.045 C 283.235 33.793,282.879 33.540,282.833 33.482 C 282.787 33.425,282.563 33.326,282.333 33.261 C 281.912 33.142,281.027 32.764,280.417 32.441 C 280.081 32.264,274.003 32.134,272.792 32.279 M158.929 32.481 C 158.878 32.562,158.499 32.679,158.085 32.741 C 157.672 32.803,157.333 32.916,157.333 32.992 C 157.333 33.068,157.076 33.178,156.762 33.237 C 156.448 33.296,156.167 33.398,156.137 33.465 C 156.108 33.531,155.765 33.835,155.375 34.140 L 154.667 34.695 154.667 33.761 L 154.667 32.828 150.542 32.872 L 146.417 32.917 146.374 43.875 L 146.331 54.833 150.488 54.833 L 154.646 54.833 154.698 48.160 C 154.734 43.487,154.806 41.452,154.936 41.369 C 155.038 41.303,155.177 41.074,155.244 40.859 C 155.902 38.752,160.368 38.822,160.766 40.945 C 160.824 41.252,160.938 41.545,161.019 41.595 C 161.101 41.646,161.167 44.618,161.167 48.260 L 161.167 54.833 165.417 54.833 L 169.667 54.833 169.667 46.914 C 169.667 42.255,169.602 38.876,169.509 38.706 C 169.422 38.547,169.307 38.135,169.252 37.792 C 169.197 37.448,169.080 37.167,168.992 37.167 C 168.905 37.167,168.833 36.989,168.833 36.772 C 168.833 36.153,166.917 33.988,166.154 33.746 C 165.978 33.690,165.833 33.574,165.833 33.489 C 165.833 33.403,165.740 33.331,165.625 33.328 C 165.510 33.325,165.117 33.177,164.750 33.000 C 164.383 32.823,163.919 32.675,163.718 32.672 C 163.517 32.669,163.307 32.592,163.250 32.500 C 163.122 32.293,159.056 32.275,158.929 32.481 M213.600 32.473 C 213.549 32.555,213.206 32.671,212.837 32.730 C 212.468 32.789,212.167 32.911,212.167 33.002 C 212.167 33.093,211.989 33.167,211.772 33.167 C 211.442 33.167,210.639 33.635,210.333 34.006 C 210.287 34.062,210.119 34.156,209.958 34.215 C 209.798 34.274,209.667 34.438,209.667 34.578 C 209.667 34.718,209.560 34.833,209.431 34.833 C 209.301 34.833,209.157 34.927,209.110 35.042 C 209.064 35.156,209.020 34.825,209.013 34.305 C 208.991 32.715,209.336 32.833,204.732 32.833 L 200.667 32.833 200.667 43.836 L 200.667 54.839 204.792 54.795 L 208.917 54.750 209.014 49.000 C 209.105 43.562,209.195 42.333,209.500 42.333 C 209.572 42.333,209.677 42.147,209.734 41.920 C 209.850 41.459,210.898 40.334,211.214 40.332 C 211.325 40.332,211.642 40.209,211.917 40.058 C 212.481 39.751,215.004 39.669,215.370 39.946 C 215.744 40.230,217.032 40.535,217.190 40.376 C 217.272 40.294,217.319 38.470,217.295 36.322 L 217.250 32.417 215.472 32.369 C 214.493 32.344,213.651 32.390,213.600 32.473 M367.264 32.478 C 367.214 32.558,366.872 32.671,366.504 32.730 C 366.135 32.789,365.833 32.902,365.833 32.981 C 365.833 33.060,365.598 33.172,365.310 33.230 C 365.023 33.287,364.614 33.521,364.402 33.750 C 364.190 33.979,363.938 34.167,363.843 34.167 C 363.747 34.167,363.462 34.400,363.210 34.684 L 362.750 35.202 362.667 34.059 L 362.583 32.917 358.458 32.872 L 354.333 32.828 354.333 43.830 L 354.333 54.833 358.492 54.833 L 362.651 54.833 362.703 48.875 C 362.754 43.070,362.765 42.900,363.127 42.258 C 363.633 41.361,364.616 40.382,365.145 40.249 C 365.384 40.189,365.631 40.058,365.694 39.956 C 365.842 39.716,368.984 39.708,369.138 39.947 C 369.249 40.120,369.480 40.205,370.375 40.404 L 370.833 40.506 370.833 36.420 L 370.833 32.333 369.093 32.333 C 368.136 32.333,367.313 32.398,367.264 32.478 M335.333 34.593 C 335.333 34.725,335.408 34.833,335.500 34.833 C 335.592 34.833,335.667 35.040,335.668 35.292 C 335.668 35.544,335.778 35.959,335.911 36.215 C 336.045 36.471,336.203 36.940,336.262 37.257 C 336.322 37.574,336.427 37.833,336.497 37.833 C 336.567 37.833,336.675 38.150,336.737 38.537 C 336.798 38.924,336.926 39.288,337.020 39.346 C 337.115 39.404,337.234 39.763,337.285 40.143 C 337.336 40.523,337.442 40.833,337.522 40.833 C 337.602 40.833,337.667 40.965,337.668 41.125 C 337.668 41.285,337.776 41.623,337.908 41.875 L 338.147 42.333 335.186 42.333 L 332.224 42.333 332.298 41.833 C 332.338 41.558,332.438 41.333,332.519 41.333 C 332.600 41.333,332.667 41.202,332.668 41.042 C 332.668 40.881,332.781 40.535,332.918 40.273 C 333.055 40.010,333.167 39.673,333.168 39.523 C 333.168 39.373,333.278 39.041,333.411 38.785 C 333.545 38.529,333.703 38.059,333.763 37.741 C 333.822 37.423,333.938 37.122,334.019 37.072 C 334.100 37.021,334.167 36.854,334.168 36.698 C 334.168 36.543,334.274 36.215,334.402 35.970 C 334.530 35.724,334.689 35.274,334.754 34.970 C 334.931 34.146,335.333 33.884,335.333 34.593 M71.718 36.250 C 71.719 36.800,71.750 37.005,71.787 36.705 C 71.825 36.406,71.824 35.956,71.786 35.705 C 71.748 35.455,71.717 35.700,71.718 36.250 M71.833 37.990 C 71.833 38.179,71.908 38.333,72.000 38.333 C 72.092 38.333,72.167 38.225,72.167 38.093 C 72.167 37.961,72.092 37.807,72.000 37.750 C 71.908 37.693,71.833 37.801,71.833 37.990 M132.667 38.000 C 132.667 38.092,132.736 38.167,132.822 38.167 C 133.351 38.167,134.833 39.695,134.833 40.241 C 134.833 40.292,133.213 40.333,131.232 40.333 L 127.631 40.333 127.736 39.912 C 127.857 39.433,129.090 38.167,129.437 38.167 C 129.563 38.167,129.667 38.092,129.667 38.000 C 129.667 37.901,130.278 37.833,131.167 37.833 C 132.056 37.833,132.667 37.901,132.667 38.000 M186.833 37.982 C 186.833 38.064,187.021 38.178,187.250 38.235 C 187.479 38.293,187.667 38.413,187.667 38.503 C 187.667 38.593,187.765 38.667,187.885 38.667 C 188.070 38.667,189.167 40.025,189.167 40.255 C 189.167 40.298,187.517 40.333,185.500 40.333 C 182.352 40.333,181.833 40.298,181.833 40.083 C 181.833 39.946,181.908 39.833,182.000 39.833 C 182.092 39.833,182.167 39.717,182.167 39.575 C 182.167 39.277,183.315 38.169,183.625 38.167 C 183.740 38.167,183.833 38.092,183.833 38.000 C 183.833 37.901,184.444 37.833,185.333 37.833 C 186.158 37.833,186.833 37.900,186.833 37.982 M278.456 38.323 C 278.893 38.593,279.362 38.977,279.500 39.177 C 279.637 39.377,279.844 39.639,279.958 39.759 C 280.463 40.286,280.178 40.333,276.515 40.333 L 272.864 40.333 273.173 39.692 C 273.344 39.339,273.719 38.871,274.008 38.650 C 274.297 38.430,274.619 38.159,274.725 38.048 C 275.148 37.603,277.578 37.782,278.456 38.323 M234.684 40.292 C 235.221 40.643,235.684 41.081,235.740 41.292 C 235.795 41.498,235.907 41.667,235.990 41.667 C 236.073 41.667,236.189 41.891,236.250 42.165 C 236.310 42.439,236.428 42.706,236.513 42.758 C 236.710 42.880,236.715 44.950,236.518 45.072 C 236.437 45.122,236.321 45.361,236.260 45.602 C 236.200 45.843,236.060 46.135,235.950 46.252 C 235.840 46.368,235.608 46.659,235.435 46.898 C 235.262 47.138,235.018 47.333,234.893 47.333 C 234.769 47.333,234.667 47.400,234.667 47.482 C 234.667 47.564,234.461 47.682,234.210 47.745 C 233.959 47.808,233.700 47.946,233.635 48.051 C 233.486 48.292,231.014 48.290,230.860 48.049 C 230.799 47.955,230.578 47.824,230.367 47.759 C 229.576 47.512,228.167 45.720,228.167 44.961 C 228.167 44.799,228.092 44.667,228.000 44.667 C 227.794 44.667,227.777 43.221,227.981 43.095 C 228.062 43.045,228.178 42.740,228.239 42.419 C 228.299 42.097,228.420 41.833,228.508 41.833 C 228.595 41.833,228.667 41.743,228.667 41.632 C 228.667 41.359,229.847 40.167,230.117 40.167 C 230.236 40.167,230.333 40.097,230.333 40.012 C 230.333 39.355,233.570 39.563,234.684 40.292 M305.899 40.042 C 306.059 40.202,306.260 40.333,306.345 40.333 C 306.671 40.333,307.833 41.817,307.833 42.233 C 307.833 42.369,307.908 42.527,308.000 42.583 C 308.660 42.991,307.956 45.923,306.958 46.921 C 305.887 47.992,302.808 48.747,302.360 48.049 C 302.299 47.955,302.096 47.830,301.908 47.772 C 301.447 47.628,300.167 46.382,300.167 46.077 C 300.167 45.943,300.100 45.833,300.018 45.833 C 299.492 45.833,299.506 42.835,300.035 41.815 C 300.308 41.290,301.240 40.333,301.479 40.333 C 301.573 40.333,301.710 40.232,301.783 40.108 C 302.105 39.564,305.370 39.512,305.899 40.042 M72.333 41.073 C 72.333 41.308,72.408 41.500,72.500 41.500 C 72.592 41.500,72.667 41.354,72.667 41.177 C 72.667 40.999,72.592 40.807,72.500 40.750 C 72.405 40.692,72.333 40.832,72.333 41.073 M72.333 43.083 C 72.333 43.221,72.408 43.333,72.500 43.333 C 72.592 43.333,72.667 43.221,72.667 43.083 C 72.667 42.946,72.592 42.833,72.500 42.833 C 72.408 42.833,72.333 42.946,72.333 43.083 M69.122 52.000 C 68.965 52.183,68.894 52.333,68.965 52.333 C 69.035 52.333,69.221 52.183,69.378 52.000 C 69.535 51.817,69.606 51.667,69.535 51.667 C 69.465 51.667,69.279 51.817,69.122 52.000 M67.519 54.091 C 67.300 54.322,67.150 54.537,67.186 54.570 C 67.221 54.602,67.461 54.412,67.719 54.148 C 67.977 53.883,68.127 53.668,68.052 53.670 C 67.978 53.671,67.738 53.861,67.519 54.091 M8.281 58.648 C 8.539 58.912,8.779 59.102,8.814 59.070 C 8.902 58.989,8.117 58.173,7.948 58.170 C 7.873 58.168,8.023 58.383,8.281 58.648 M61.684 59.939 C 61.373 60.247,61.162 60.500,61.215 60.500 C 61.372 60.500,62.405 59.515,62.324 59.443 C 62.283 59.407,61.995 59.630,61.684 59.939 M60.371 61.253 C 60.070 61.572,59.883 61.832,59.954 61.830 C 60.093 61.827,60.693 61.219,60.896 60.875 C 61.100 60.531,60.946 60.641,60.371 61.253 M10.833 61.385 C 10.833 61.414,11.058 61.653,11.333 61.917 C 11.935 62.493,11.998 62.393,11.425 61.774 C 11.061 61.382,10.833 61.232,10.833 61.385 M12.617 63.745 C 12.890 64.120,13.167 64.290,13.167 64.083 C 13.167 63.970,12.523 63.333,12.409 63.333 C 12.359 63.333,12.453 63.518,12.617 63.745 M57.542 65.068 C 57.335 65.286,57.167 65.520,57.167 65.589 C 57.167 65.659,57.354 65.513,57.583 65.266 C 57.954 64.865,58.083 64.661,57.958 64.670 C 57.935 64.671,57.748 64.850,57.542 65.068 M13.617 65.245 C 13.890 65.620,14.167 65.790,14.167 65.583 C 14.167 65.470,13.523 64.833,13.409 64.833 C 13.359 64.833,13.453 65.018,13.617 65.245 M56.688 65.784 C 56.412 65.893,55.782 66.504,55.862 66.584 C 55.893 66.616,56.181 66.424,56.501 66.158 C 57.085 65.675,57.115 65.614,56.688 65.784 M14.167 65.933 C 14.167 65.997,14.429 66.305,14.750 66.616 C 15.071 66.928,15.333 67.130,15.333 67.067 C 15.333 67.003,15.071 66.695,14.750 66.384 C 14.429 66.072,14.167 65.870,14.167 65.933 M55.122 67.000 C 54.965 67.183,54.894 67.333,54.965 67.333 C 55.035 67.333,55.221 67.183,55.378 67.000 C 55.535 66.817,55.606 66.667,55.535 66.667 C 55.465 66.667,55.279 66.817,55.122 67.000 M16.750 67.889 C 17.124 68.189,17.667 68.254,17.667 68.000 C 17.667 67.908,17.523 67.833,17.347 67.833 C 17.171 67.833,16.890 67.786,16.722 67.728 C 16.454 67.635,16.457 67.654,16.750 67.889 M53.929 67.929 C 53.604 68.254,53.596 68.350,53.904 68.232 C 54.034 68.182,54.182 68.034,54.232 67.904 C 54.350 67.596,54.254 67.604,53.929 67.929 M19.167 68.488 C 19.167 68.573,19.580 68.694,20.086 68.757 C 20.591 68.821,21.045 68.939,21.095 69.019 C 21.217 69.216,21.667 69.208,21.667 69.010 C 21.667 68.924,21.329 68.803,20.917 68.741 C 20.504 68.679,20.167 68.562,20.167 68.481 C 20.167 68.400,19.942 68.333,19.667 68.333 C 19.392 68.333,19.167 68.403,19.167 68.488 M52.622 69.000 C 52.465 69.183,52.394 69.333,52.465 69.333 C 52.535 69.333,52.721 69.183,52.878 69.000 C 53.035 68.817,53.106 68.667,53.035 68.667 C 52.965 68.667,52.779 68.817,52.622 69.000 M22.907 69.589 C 23.085 69.723,23.385 69.823,23.574 69.811 C 23.886 69.790,23.883 69.781,23.542 69.716 C 23.335 69.676,23.167 69.574,23.167 69.488 C 23.167 69.403,23.035 69.336,22.875 69.339 C 22.611 69.343,22.614 69.367,22.907 69.589 M25.250 70.279 C 25.433 70.329,25.658 70.428,25.750 70.499 C 25.842 70.571,26.254 70.671,26.667 70.722 C 27.079 70.774,27.267 70.774,27.083 70.722 C 26.900 70.670,26.712 70.572,26.667 70.504 C 26.621 70.436,26.208 70.337,25.750 70.284 C 25.292 70.232,25.067 70.230,25.250 70.279 M50.125 70.282 C 49.965 70.323,49.833 70.427,49.833 70.512 C 49.833 70.717,49.880 70.710,50.439 70.418 C 50.895 70.180,50.751 70.118,50.125 70.282 M35.292 70.789 C 35.681 70.824,36.319 70.824,36.708 70.789 C 37.098 70.754,36.779 70.725,36.000 70.725 C 35.221 70.725,34.902 70.754,35.292 70.789 M27.917 71.000 C 27.973 71.092,28.132 71.167,28.270 71.167 C 28.407 71.167,28.473 71.092,28.417 71.000 C 28.360 70.908,28.201 70.833,28.064 70.833 C 27.926 70.833,27.860 70.908,27.917 71.000 M33.333 71.000 C 33.333 71.092,33.479 71.167,33.657 71.167 C 33.835 71.167,34.027 71.092,34.083 71.000 C 34.142 70.905,34.002 70.833,33.760 70.833 C 33.525 70.833,33.333 70.908,33.333 71.000 M29.958 71.290 C 30.440 71.323,31.227 71.323,31.708 71.290 C 32.190 71.256,31.796 71.228,30.833 71.228 C 29.871 71.228,29.477 71.256,29.958 71.290 M39.215 71.403 C 39.471 71.541,39.959 71.692,40.299 71.737 C 40.639 71.783,40.767 71.777,40.583 71.724 C 40.400 71.671,40.212 71.573,40.167 71.505 C 40.121 71.437,39.783 71.330,39.417 71.267 L 38.750 71.152 39.215 71.403 M46.375 71.287 C 46.077 71.324,45.833 71.425,45.833 71.511 C 45.833 71.712,46.551 71.714,46.758 71.513 C 46.845 71.428,47.142 71.327,47.417 71.288 L 47.917 71.217 47.417 71.218 C 47.142 71.219,46.673 71.250,46.375 71.287 M44.875 71.782 C 45.035 71.823,45.298 71.823,45.458 71.782 C 45.619 71.740,45.487 71.705,45.167 71.705 C 44.846 71.705,44.715 71.740,44.875 71.782 M41.250 72.000 C 41.307 72.092,41.911 72.167,42.593 72.167 C 43.309 72.167,43.833 72.096,43.833 72.000 C 43.833 71.903,43.274 71.833,42.490 71.833 C 41.637 71.833,41.185 71.894,41.250 72.000 " stroke="none" fill="#040404" fill-rule="evenodd"></path><path id="path3" d="" stroke="none" fill="#408480" fill-rule="evenodd"></path><path id="path4" d="M30.375 71.115 C 30.535 71.157,30.798 71.157,30.958 71.115 C 31.119 71.073,30.988 71.039,30.667 71.039 C 30.346 71.039,30.215 71.073,30.375 71.115 " stroke="none" fill="#400484" fill-rule="evenodd"></path></g></svg>