<?xml version="1.0" standalone="no"?>
<!DOCTYPE svg PUBLIC "-//W3C//DTD SVG 20010904//EN"
 "http://www.w3.org/TR/2001/REC-SVG-20010904/DTD/svg10.dtd">
<svg version="1.0" xmlns="http://www.w3.org/2000/svg"
 width="1144.000000pt" height="242.000000pt" viewBox="0 0 1144.000000 242.000000"
 preserveAspectRatio="xMidYMid meet">

<g transform="translate(0.000000,242.000000) scale(0.100000,-0.100000)"
fill="#000000" stroke="none">
<path d="M8796 2103 c-3 -16 -46 -336 -96 -713 -50 -377 -93 -697 -96 -713
l-6 -27 195 0 195 0 6 27 c3 16 8 69 11 118 9 132 5 125 85 125 l68 0 6 -52
c3 -29 8 -90 12 -135 l7 -83 194 0 195 0 -6 28 c-8 39 -216 1425 -216 1440 0
9 -66 12 -274 12 l-274 0 -6 -27z m308 -438 c4 -49 16 -175 26 -280 11 -104
20 -193 20 -197 0 -5 -31 -8 -70 -8 -64 0 -70 2 -70 20 0 11 16 144 35 296 19
151 35 280 36 287 2 37 17 -41 23 -118z"/>
<path d="M9650 1390 l0 -740 190 0 190 0 0 335 0 335 24 0 c48 0 74 -17 85
-57 7 -23 11 -155 11 -325 l0 -288 176 0 175 0 -3 314 -3 314 -30 44 c-22 31
-48 52 -94 74 l-64 32 41 7 c57 9 103 42 127 90 17 35 20 60 20 195 0 172 -8
213 -58 286 -23 35 -48 57 -87 76 -68 35 -203 47 -502 48 l-198 0 0 -740z
m454 479 c39 -18 49 -57 44 -174 -4 -120 -11 -133 -77 -142 l-41 -6 0 167 0
166 25 0 c13 0 35 -5 49 -11z"/>
<path d="M10590 1980 l0 -150 115 0 115 0 0 -590 0 -590 190 0 190 0 0 590 0
590 115 0 115 0 0 150 0 150 -420 0 -420 0 0 -150z"/>
<path d="M8485 2090 c-88 -16 -161 -29 -162 -29 -2 -1 -3 -10 -3 -21 0 -18 7
-20 63 -20 70 0 87 -10 87 -51 0 -24 -117 -457 -126 -468 -2 -2 -18 9 -36 24
-48 40 -89 55 -155 55 -145 -1 -335 -115 -465 -279 -139 -174 -200 -384 -152
-524 20 -59 97 -133 149 -143 60 -11 131 3 198 38 68 36 196 157 266 251 24
32 45 56 47 55 1 -2 -11 -48 -27 -102 -35 -119 -37 -183 -8 -220 46 -58 145
-13 236 108 39 53 50 73 41 83 -17 21 -26 16 -64 -45 -20 -31 -41 -60 -47 -64
-21 -13 -29 5 -24 46 5 30 334 1195 373 1318 7 23 8 23 -191 -12z m-259 -586
c79 -52 73 -198 -14 -369 -66 -131 -196 -290 -280 -343 -88 -57 -170 -49 -212
20 -24 40 -27 155 -6 235 40 151 187 369 293 434 82 51 163 59 219 23z"/>
<path d="M6453 1798 c-96 -134 -163 -193 -269 -238 -43 -18 -71 -36 -76 -49
-7 -20 -4 -21 73 -21 79 0 80 0 73 -22 -4 -13 -50 -162 -101 -333 -119 -391
-127 -462 -56 -494 83 -38 209 33 298 168 27 40 27 43 11 59 -16 16 -18 16
-27 0 -20 -36 -91 -119 -114 -134 -14 -9 -32 -13 -41 -10 -26 10 -15 58 99
426 l103 335 77 3 c52 2 77 7 77 15 0 7 3 22 6 35 6 21 4 22 -65 22 -39 0 -71
1 -71 3 0 2 18 64 40 137 22 73 40 135 40 137 0 2 -10 3 -23 3 -16 0 -33 -13
-54 -42z"/>
<path d="M510 1565 c-95 -26 -155 -62 -218 -130 -129 -137 -138 -301 -22 -414
23 -22 62 -48 88 -57 62 -23 70 -32 38 -40 -46 -11 -144 -81 -162 -116 -22
-43 -20 -85 5 -112 l21 -22 -76 -43 c-97 -56 -137 -91 -163 -145 -26 -53 -26
-86 -1 -136 27 -53 75 -87 167 -118 71 -24 93 -26 238 -27 178 0 242 12 352
65 98 48 173 147 173 226 0 43 -22 93 -56 127 -43 43 -129 75 -294 112 -63 14
-139 32 -167 41 -59 16 -80 42 -63 74 16 29 133 81 208 91 144 20 213 50 296
128 67 64 106 147 106 228 0 34 -4 73 -10 87 l-10 26 89 0 89 0 11 44 c6 25
11 50 11 55 0 7 -47 11 -134 11 -126 0 -138 2 -188 27 -47 24 -66 28 -163 30
-75 2 -128 -2 -165 -12z m220 -63 c73 -54 88 -134 49 -272 -26 -94 -68 -161
-126 -199 -87 -58 -174 -51 -237 19 -42 46 -53 103 -38 189 21 120 115 256
193 280 47 14 129 5 159 -17z m-210 -907 c208 -49 256 -68 283 -113 69 -119
-91 -226 -338 -226 -127 0 -199 17 -263 63 -73 54 -79 144 -15 229 31 41 100
92 125 92 10 0 103 -20 208 -45z"/>
<path d="M1675 1561 c-200 -57 -387 -242 -459 -453 -57 -169 -32 -314 69 -407
59 -54 127 -75 229 -69 130 8 253 66 382 182 57 51 64 61 51 73 -12 12 -25 6
-95 -42 -117 -80 -162 -98 -252 -99 -91 -1 -148 26 -195 92 -26 38 -30 54 -33
121 l-4 77 111 17 c207 33 352 92 450 183 72 66 101 121 101 191 0 62 -31 105
-95 134 -52 24 -178 24 -260 0z m182 -66 c31 -35 30 -88 -3 -153 -61 -122
-226 -215 -436 -245 l-36 -5 15 51 c63 217 248 396 393 383 32 -3 50 -11 67
-31z"/>
<path d="M2320 1551 c-146 -25 -155 -28 -158 -50 -4 -22 -2 -23 48 -16 61 8
90 -10 90 -58 0 -23 -126 -485 -206 -759 -5 -16 3 -18 73 -18 l79 0 28 98 c55
195 194 430 346 584 111 113 187 150 225 111 26 -26 16 -72 -86 -381 -102
-313 -112 -363 -79 -404 46 -59 143 -26 242 81 78 85 98 118 78 131 -11 7 -20
2 -35 -18 -48 -66 -102 -115 -120 -108 -24 9 -21 18 84 346 49 151 92 296 96
322 14 97 -30 158 -119 166 -118 10 -258 -97 -435 -331 -41 -53 -76 -96 -78
-93 -3 3 99 373 114 414 7 16 -2 15 -187 -17z"/>
<path d="M3685 1561 c-200 -57 -387 -242 -459 -453 -57 -169 -32 -314 69 -407
59 -54 127 -75 229 -69 130 8 253 66 382 182 57 51 64 61 51 73 -12 12 -25 6
-95 -42 -117 -80 -162 -98 -252 -99 -91 -1 -148 26 -195 92 -26 38 -30 54 -33
121 l-4 77 111 17 c207 33 352 92 450 183 72 66 101 121 101 191 0 62 -31 105
-95 134 -52 24 -178 24 -260 0z m182 -66 c31 -35 30 -88 -3 -153 -61 -122
-226 -215 -436 -245 l-36 -5 15 51 c63 217 248 396 393 383 32 -3 50 -11 67
-31z"/>
<path d="M4340 1551 c-103 -18 -155 -31 -154 -39 3 -33 4 -34 50 -27 34 5 52
2 71 -10 23 -15 25 -22 20 -64 -4 -34 -157 -595 -203 -743 -5 -16 3 -18 75
-18 l80 0 11 43 c51 198 94 296 194 446 88 133 193 256 227 266 25 8 49 -11
49 -39 0 -36 28 -66 61 -66 41 0 74 36 93 101 42 142 -11 213 -122 162 -63
-28 -219 -197 -307 -330 -44 -67 -81 -121 -82 -120 -2 2 105 392 123 450 7 21
8 21 -186 -12z"/>
<path d="M5428 1557 c-101 -43 -151 -78 -243 -171 -150 -151 -233 -320 -242
-492 -5 -83 -3 -97 20 -147 32 -71 85 -109 161 -115 115 -9 231 51 373 195 59
61 83 80 78 63 -41 -130 -45 -195 -13 -235 19 -24 26 -27 69 -23 62 6 128 54
185 134 43 60 43 61 25 79 -19 16 -21 15 -44 -32 -14 -26 -36 -59 -50 -71 -23
-22 -26 -22 -35 -6 -6 11 -5 37 4 78 15 61 187 686 204 740 l10 28 -58 -6
c-98 -12 -110 -15 -116 -41 -3 -13 -11 -37 -17 -52 l-10 -27 -22 38 c-35 63
-67 80 -150 84 -58 2 -83 -2 -129 -21z m198 -52 c37 -24 54 -74 54 -157 0
-134 -42 -252 -136 -384 -76 -107 -196 -197 -280 -210 -54 -8 -108 15 -134 58
-40 66 -22 214 44 354 129 273 327 421 452 339z"/>
<path d="M7105 1561 c-200 -57 -387 -242 -459 -453 -57 -169 -32 -314 69 -407
59 -54 127 -75 229 -69 130 8 253 66 382 182 57 51 64 61 51 73 -12 12 -25 6
-95 -42 -117 -80 -162 -98 -252 -99 -91 -1 -148 26 -195 92 -26 38 -30 54 -33
121 l-4 77 111 17 c207 33 352 92 450 183 72 66 101 121 101 191 0 62 -31 105
-95 134 -52 24 -178 24 -260 0z m182 -66 c31 -35 30 -88 -3 -153 -61 -122
-226 -215 -436 -245 l-36 -5 15 51 c63 217 248 396 393 383 32 -3 50 -11 67
-31z"/>
</g>
</svg>
