<?xml version="1.0" encoding="UTF-8"?>
<svg xmlns="http://www.w3.org/2000/svg" xmlns:xlink="http://www.w3.org/1999/xlink" width="40px" height="40px" viewBox="0 0 40 39" version="1.1">
<g id="surface1">
<path style=" stroke:none;fill-rule:evenodd;fill:rgb(98.823529%,98.431373%,98.431373%);fill-opacity:1;" d="M 11.796875 10.875 C 7.929688 11.265625 5.011719 14.746094 5.011719 18.972656 C 5.011719 23.925781 9.007812 27.710938 13.496094 27.007812 C 17 26.460938 19.683594 23.164062 19.792969 19.269531 C 19.8125 18.585938 19.675781 18.28125 19.261719 18.066406 C 19.003906 17.933594 19.285156 17.941406 15.144531 17.941406 L 11.394531 17.941406 L 11.394531 20.003906 L 14.515625 20.003906 C 17.585938 20.003906 17.636719 20.003906 17.636719 20.042969 C 17.636719 20.402344 17.328125 21.386719 17.03125 21.980469 C 15.574219 24.871094 12.316406 25.882812 9.789062 24.222656 C 6.597656 22.125 6.183594 17.105469 8.976562 14.378906 C 10.320312 13.066406 12.078125 12.617188 13.890625 13.121094 C 15.117188 13.460938 16.320312 14.316406 16.847656 15.226562 C 16.894531 15.304688 17.007812 15.492188 17.097656 15.644531 L 17.261719 15.917969 L 19.535156 15.917969 L 19.429688 15.703125 C 19.375 15.585938 19.210938 15.242188 19.070312 14.941406 C 18.621094 13.996094 18.347656 13.597656 17.757812 13.019531 C 16.21875 11.507812 13.875 10.667969 11.796875 10.875 M 26.941406 10.90625 C 26.703125 10.996094 26.519531 11.132812 26.40625 11.308594 C 26.320312 11.441406 19.351562 27.023438 19.351562 27.082031 C 19.351562 27.085938 19.878906 27.089844 20.523438 27.089844 L 21.695312 27.089844 L 21.804688 26.765625 C 21.894531 26.503906 27.105469 14.804688 27.261719 14.507812 L 27.289062 14.457031 L 27.332031 14.546875 C 29.363281 19.054688 32.652344 26.449219 32.75 26.738281 L 32.871094 27.089844 L 34.042969 27.089844 C 35.152344 27.089844 35.214844 27.085938 35.207031 27.054688 C 35.175781 26.953125 28.472656 11.925781 28.226562 11.414062 C 28.023438 10.984375 27.394531 10.738281 26.941406 10.90625 "/>
<path style=" stroke:none;fill-rule:evenodd;fill:rgb(92.54902%,17.254902%,14.117647%);fill-opacity:1;" d="M 16.261719 0.0195312 C 15.097656 0.21875 13.632812 0.550781 12.949219 0.765625 C 11.8125 1.125 11.53125 1.335938 10.613281 2.519531 C 9.558594 3.886719 9.34375 4.035156 7.6875 4.515625 C 5.742188 5.078125 5.402344 5.382812 4.378906 7.472656 C 4.0625 8.125 3.871094 8.472656 3.679688 8.761719 C 2.617188 10.367188 1.320312 13.574219 0.859375 15.757812 C 0.769531 16.183594 0.679688 16.53125 0.523438 17.085938 C 0.0546875 18.738281 0.0117188 19.140625 0.0117188 21.820312 C 0.0117188 23.710938 0.132812 24.074219 1.21875 25.410156 C 2.128906 26.527344 2.171875 26.609375 2.695312 28.191406 C 3.167969 29.609375 3.332031 29.960938 3.855469 30.6875 C 4.355469 31.378906 4.839844 31.933594 5.867188 32.972656 C 6.449219 33.5625 6.597656 33.742188 6.933594 34.246094 C 7.78125 35.511719 7.859375 35.621094 8.171875 35.9375 C 8.777344 36.558594 9.300781 36.78125 10.929688 37.121094 C 11.828125 37.308594 12.109375 37.386719 12.636719 37.59375 C 13.578125 37.960938 15.066406 38.355469 16.382812 38.582031 C 16.816406 38.660156 17.441406 38.613281 18.546875 38.433594 C 20.128906 38.171875 20.414062 38.1875 21.832031 38.648438 C 23.203125 39.089844 23.390625 39.105469 24.675781 38.867188 C 27.785156 38.296875 28.15625 38.136719 30.183594 36.496094 C 30.542969 36.203125 30.855469 35.972656 31.140625 35.78125 C 31.570312 35.492188 31.976562 35.03125 32.613281 34.105469 C 33.324219 33.074219 33.601562 32.789062 34.667969 31.996094 C 35.746094 31.191406 36.058594 30.902344 36.433594 30.375 C 36.636719 30.085938 36.832031 29.835938 37.144531 29.457031 C 38.34375 28.011719 38.464844 27.824219 38.933594 26.664062 C 39.210938 25.988281 39.449219 25.328125 39.59375 24.855469 C 40.082031 23.285156 40.101562 22.890625 39.777344 21.285156 C 39.582031 20.308594 39.5625 20.175781 39.535156 19.488281 C 39.507812 18.769531 39.433594 18.359375 39.140625 17.269531 C 38.898438 16.378906 38.839844 16.117188 38.667969 15.195312 C 38.375 13.652344 38.25 13.171875 37.945312 12.402344 C 37.773438 11.976562 37.667969 11.609375 37.515625 10.914062 C 37.167969 9.332031 37.042969 9.046875 36.265625 8.027344 C 35.136719 6.550781 33.398438 4.835938 31.910156 3.734375 C 30.84375 2.949219 30.136719 2.578125 28.261719 1.816406 C 27.074219 1.332031 26.921875 1.304688 25.433594 1.238281 C 24.160156 1.1875 24.0625 1.171875 22.683594 0.832031 C 21.390625 0.515625 20.964844 0.445312 20.160156 0.417969 C 19.507812 0.390625 19.316406 0.367188 18.34375 0.1875 C 17.511719 0.0351562 17.371094 0.015625 16.847656 0.0078125 C 16.585938 0.00390625 16.324219 0.0117188 16.261719 0.0195312 M 27.34375 10.480469 C 27.351562 10.488281 27.335938 10.5 27.3125 10.5 C 27.292969 10.5 27.273438 10.488281 27.273438 10.480469 C 27.273438 10.46875 27.285156 10.457031 27.300781 10.457031 C 27.316406 10.457031 27.335938 10.46875 27.34375 10.480469 M 13.3125 10.882812 C 15.324219 11.140625 17.242188 12.203125 18.363281 13.683594 C 18.671875 14.089844 18.835938 14.398438 19.484375 15.792969 L 19.554688 15.9375 L 17.261719 15.9375 L 17.0625 15.605469 C 16.664062 14.941406 16.5625 14.800781 16.222656 14.46875 C 14.625 12.902344 12.132812 12.488281 10.242188 13.46875 C 7.035156 15.132812 6.109375 19.84375 8.390625 22.882812 C 10.773438 26.054688 15.179688 25.597656 17.011719 21.988281 C 17.308594 21.402344 17.617188 20.429688 17.617188 20.074219 L 17.617188 20.023438 L 11.382812 20.015625 L 11.382812 17.929688 L 15.105469 17.925781 C 19.195312 17.921875 18.980469 17.914062 19.238281 18.039062 C 19.792969 18.308594 19.914062 18.804688 19.746094 20.105469 C 19.105469 25.058594 14.609375 28.210938 10.257812 26.753906 C 5.753906 25.246094 3.652344 19.605469 5.898438 15.074219 C 7.109375 12.632812 9.347656 11.074219 11.960938 10.847656 C 12.171875 10.828125 13.074219 10.855469 13.3125 10.882812 M 27.585938 10.890625 C 27.824219 10.949219 28.046875 11.105469 28.179688 11.308594 C 28.273438 11.457031 35.230469 27.027344 35.230469 27.089844 C 35.230469 27.101562 34.761719 27.109375 34.046875 27.105469 L 32.863281 27.097656 L 32.746094 26.753906 C 32.644531 26.460938 27.355469 14.574219 27.292969 14.503906 C 27.269531 14.472656 21.925781 26.441406 21.8125 26.785156 L 21.703125 27.097656 L 20.515625 27.105469 C 19.460938 27.109375 19.332031 27.105469 19.339844 27.078125 C 19.457031 26.78125 26.230469 11.609375 26.359375 11.363281 C 26.5625 10.960938 27.074219 10.765625 27.585938 10.890625 "/>
<path style=" stroke:none;fill-rule:evenodd;fill:rgb(96.078431%,61.568627%,49.411765%);fill-opacity:1;" d="M 12.1875 10.851562 C 12.21875 10.855469 12.265625 10.855469 12.296875 10.851562 C 12.328125 10.84375 12.304688 10.84375 12.242188 10.84375 C 12.179688 10.84375 12.15625 10.84375 12.1875 10.851562 M 12.621094 10.851562 C 12.644531 10.855469 12.6875 10.855469 12.710938 10.851562 C 12.738281 10.84375 12.714844 10.839844 12.667969 10.839844 C 12.617188 10.839844 12.597656 10.84375 12.621094 10.851562 M 12.652344 12.933594 C 12.671875 12.9375 12.703125 12.9375 12.722656 12.933594 C 12.742188 12.929688 12.726562 12.925781 12.6875 12.925781 C 12.648438 12.925781 12.632812 12.929688 12.652344 12.933594 M 13.246094 17.9375 C 14.273438 17.9375 15.949219 17.9375 16.976562 17.9375 C 18 17.933594 17.160156 17.929688 15.109375 17.929688 C 13.0625 17.929688 12.222656 17.933594 13.246094 17.9375 M 4.996094 18.972656 C 4.996094 19.128906 5 19.195312 5.003906 19.117188 C 5.007812 19.039062 5.007812 18.90625 5.003906 18.828125 C 5 18.75 4.996094 18.8125 4.996094 18.972656 M 7.117188 18.773438 C 7.117188 18.824219 7.121094 18.84375 7.125 18.820312 C 7.128906 18.792969 7.128906 18.753906 7.125 18.730469 C 7.121094 18.703125 7.117188 18.726562 7.117188 18.773438 M 19.804688 19.0625 C 19.804688 19.171875 19.808594 19.214844 19.8125 19.15625 C 19.816406 19.097656 19.816406 19.007812 19.8125 18.957031 C 19.808594 18.90625 19.804688 18.953125 19.804688 19.0625 M 7.117188 19.171875 C 7.117188 19.21875 7.121094 19.242188 7.125 19.214844 C 7.128906 19.191406 7.128906 19.152344 7.125 19.125 C 7.121094 19.101562 7.117188 19.121094 7.117188 19.171875 M 12.957031 20.019531 C 13.820312 20.023438 15.230469 20.023438 16.085938 20.019531 C 16.945312 20.015625 16.238281 20.015625 14.515625 20.015625 C 12.792969 20.015625 12.089844 20.015625 12.957031 20.019531 M 12.207031 25.019531 C 12.226562 25.023438 12.257812 25.023438 12.277344 25.019531 C 12.296875 25.015625 12.28125 25.011719 12.242188 25.011719 C 12.203125 25.011719 12.1875 25.015625 12.207031 25.019531 M 12.570312 25.019531 C 12.589844 25.023438 12.621094 25.023438 12.640625 25.019531 C 12.660156 25.015625 12.644531 25.011719 12.605469 25.011719 C 12.566406 25.011719 12.550781 25.015625 12.570312 25.019531 M 19.347656 27.09375 C 19.351562 27.101562 19.882812 27.109375 20.523438 27.109375 C 21.167969 27.109375 21.699219 27.101562 21.703125 27.09375 C 21.710938 27.085938 21.179688 27.078125 20.523438 27.078125 C 19.871094 27.078125 19.339844 27.085938 19.347656 27.09375 M 12.289062 27.105469 C 12.363281 27.109375 12.484375 27.109375 12.5625 27.105469 C 12.636719 27.101562 12.574219 27.097656 12.425781 27.097656 C 12.273438 27.097656 12.214844 27.101562 12.289062 27.105469 M 33.460938 27.105469 C 33.792969 27.109375 34.328125 27.109375 34.652344 27.105469 C 34.976562 27.101562 34.707031 27.097656 34.050781 27.097656 C 33.394531 27.097656 33.128906 27.101562 33.460938 27.105469 "/>
<path style=" stroke:none;fill-rule:evenodd;fill:rgb(95.686275%,47.45098%,33.333333%);fill-opacity:1;" d="M 27.273438 10.480469 C 27.273438 10.488281 27.292969 10.5 27.3125 10.5 C 27.335938 10.5 27.351562 10.488281 27.34375 10.480469 C 27.335938 10.46875 27.316406 10.457031 27.300781 10.457031 C 27.285156 10.457031 27.273438 10.46875 27.273438 10.480469 M 12.773438 10.847656 C 12.792969 10.855469 12.824219 10.855469 12.84375 10.847656 C 12.863281 10.84375 12.847656 10.839844 12.808594 10.839844 C 12.769531 10.839844 12.753906 10.84375 12.773438 10.847656 M 27.175781 10.847656 C 27.195312 10.855469 27.226562 10.855469 27.246094 10.847656 C 27.265625 10.84375 27.25 10.839844 27.210938 10.839844 C 27.171875 10.839844 27.15625 10.84375 27.175781 10.847656 M 17.757812 13.007812 C 17.828125 13.078125 17.890625 13.136719 17.898438 13.136719 C 17.902344 13.136719 17.847656 13.078125 17.777344 13.007812 C 17.707031 12.9375 17.644531 12.878906 17.636719 12.878906 C 17.632812 12.878906 17.6875 12.9375 17.757812 13.007812 M 12.371094 12.933594 C 12.421875 12.9375 12.503906 12.9375 12.550781 12.933594 C 12.597656 12.929688 12.554688 12.925781 12.453125 12.925781 C 12.355469 12.925781 12.316406 12.929688 12.371094 12.933594 M 8.949219 14.402344 L 8.878906 14.476562 L 8.953125 14.410156 C 9.023438 14.34375 9.039062 14.328125 9.023438 14.328125 C 9.019531 14.328125 8.988281 14.363281 8.949219 14.402344 M 11.382812 18.972656 C 11.382812 19.546875 11.386719 19.78125 11.390625 19.492188 C 11.390625 19.207031 11.390625 18.738281 11.390625 18.453125 C 11.386719 18.164062 11.382812 18.398438 11.382812 18.972656 M 19.496094 18.226562 C 19.53125 18.265625 19.566406 18.296875 19.574219 18.296875 C 19.578125 18.296875 19.554688 18.265625 19.515625 18.226562 C 19.476562 18.191406 19.441406 18.160156 19.4375 18.160156 C 19.429688 18.160156 19.457031 18.191406 19.496094 18.226562 M 4.996094 18.625 C 4.996094 18.667969 5 18.683594 5.003906 18.660156 C 5.007812 18.636719 5.007812 18.597656 5.003906 18.582031 C 5 18.5625 4.996094 18.582031 4.996094 18.625 M 7.117188 18.972656 C 7.117188 19.042969 7.121094 19.074219 7.125 19.035156 C 7.128906 19 7.128906 18.945312 7.125 18.90625 C 7.121094 18.871094 7.117188 18.902344 7.117188 18.972656 M 4.996094 19.320312 C 4.996094 19.363281 5 19.378906 5.003906 19.355469 C 5.007812 19.328125 5.007812 19.292969 5.003906 19.273438 C 5 19.257812 4.996094 19.277344 4.996094 19.320312 M 19.804688 19.320312 C 19.804688 19.363281 19.808594 19.378906 19.8125 19.355469 C 19.816406 19.328125 19.816406 19.292969 19.8125 19.273438 C 19.808594 19.257812 19.804688 19.277344 19.804688 19.320312 M 12.359375 25.019531 C 12.394531 25.023438 12.453125 25.023438 12.488281 25.019531 C 12.527344 25.015625 12.496094 25.011719 12.425781 25.011719 C 12.351562 25.011719 12.324219 25.015625 12.359375 25.019531 "/>
<path style=" stroke:none;fill-rule:evenodd;fill:rgb(98.823529%,70.588235%,58.039216%);fill-opacity:1;" d="M 12.398438 10.851562 C 12.433594 10.855469 12.496094 10.855469 12.53125 10.851562 C 12.566406 10.847656 12.535156 10.84375 12.464844 10.84375 C 12.390625 10.84375 12.363281 10.847656 12.398438 10.851562 M 27.980469 11.101562 C 27.980469 11.101562 28.007812 11.132812 28.046875 11.164062 L 28.109375 11.222656 L 28.050781 11.160156 C 27.996094 11.097656 27.980469 11.085938 27.980469 11.101562 M 7.464844 12.925781 L 7.242188 13.148438 L 7.46875 12.929688 C 7.59375 12.808594 7.695312 12.710938 7.695312 12.707031 C 7.695312 12.691406 7.671875 12.71875 7.464844 12.925781 M 17.515625 12.785156 C 17.515625 12.789062 17.542969 12.820312 17.582031 12.851562 L 17.648438 12.910156 L 17.585938 12.84375 C 17.53125 12.785156 17.515625 12.773438 17.515625 12.785156 M 9.101562 14.253906 L 9.039062 14.320312 L 9.105469 14.261719 C 9.167969 14.207031 9.179688 14.191406 9.164062 14.191406 C 9.160156 14.191406 9.132812 14.21875 9.101562 14.253906 M 16.230469 14.46875 C 16.285156 14.523438 16.335938 14.566406 16.34375 14.566406 C 16.347656 14.566406 16.308594 14.523438 16.253906 14.46875 C 16.199219 14.414062 16.148438 14.367188 16.144531 14.367188 C 16.136719 14.367188 16.175781 14.414062 16.230469 14.46875 M 8.808594 14.542969 L 8.738281 14.617188 L 8.8125 14.546875 C 8.882812 14.484375 8.898438 14.46875 8.882812 14.46875 C 8.878906 14.46875 8.84375 14.5 8.808594 14.542969 M 17.832031 15.929688 C 18.148438 15.933594 18.660156 15.933594 18.976562 15.929688 C 19.289062 15.929688 19.03125 15.925781 18.402344 15.925781 C 17.777344 15.925781 17.519531 15.929688 17.832031 15.929688 M 7.117188 18.636719 C 7.117188 18.671875 7.121094 18.6875 7.125 18.671875 C 7.128906 18.652344 7.128906 18.621094 7.125 18.601562 C 7.121094 18.582031 7.117188 18.597656 7.117188 18.636719 M 7.117188 19.308594 C 7.117188 19.347656 7.121094 19.363281 7.125 19.34375 C 7.128906 19.324219 7.128906 19.292969 7.125 19.273438 C 7.121094 19.257812 7.117188 19.273438 7.117188 19.308594 M 8.808594 23.40625 C 8.847656 23.445312 8.882812 23.476562 8.886719 23.476562 C 8.890625 23.476562 8.867188 23.445312 8.828125 23.40625 C 8.789062 23.371094 8.753906 23.339844 8.75 23.339844 C 8.742188 23.339844 8.769531 23.371094 8.808594 23.40625 M 15.878906 23.550781 L 15.707031 23.726562 L 15.882812 23.558594 C 15.980469 23.464844 16.0625 23.386719 16.0625 23.382812 C 16.0625 23.371094 16.039062 23.390625 15.878906 23.550781 M 9.089844 23.6875 C 9.128906 23.722656 9.164062 23.753906 9.167969 23.753906 C 9.175781 23.753906 9.148438 23.722656 9.109375 23.6875 C 9.074219 23.648438 9.039062 23.617188 9.03125 23.617188 C 9.027344 23.617188 9.054688 23.648438 9.089844 23.6875 M 7.453125 25.011719 C 7.570312 25.128906 7.667969 25.222656 7.671875 25.222656 C 7.6875 25.222656 7.660156 25.199219 7.460938 25.003906 L 7.242188 24.796875 L 7.453125 25.011719 M 17.332031 25.035156 C 17.25 25.117188 17.1875 25.183594 17.191406 25.183594 C 17.199219 25.183594 17.269531 25.117188 17.351562 25.035156 C 17.4375 24.953125 17.5 24.886719 17.492188 24.886719 C 17.488281 24.886719 17.417969 24.953125 17.332031 25.035156 "/>
</g>
</svg>
